<svg xmlns="http://www.w3.org/2000/svg" xmlns:xlink="http://www.w3.org/1999/xlink" viewBox="0 0 147.53 176.05"><defs><style>.cls-1{fill:none;}.cls-2{isolation:isolate;}.cls-3{mix-blend-mode:overlay;}.cls-4{fill:#fff;}.cls-10,.cls-5{fill:#105c8e;}.cls-6{fill:#98e6f9;}.cls-7{clip-path:url(#clip-path);}.cls-8{opacity:0.9;}.cls-9{fill:#074f77;}.cls-10{opacity:0.4;}.cls-11{fill:#7a0000;}</style><clipPath id="clip-path" transform="translate(-2.47 -1.16)"><ellipse class="cls-1" cx="76.24" cy="74.85" rx="72.12" ry="72.04"/></clipPath></defs><title>alcohol</title><g class="cls-2"><g id="Layer_1" data-name="Layer 1"><g class="cls-3"><ellipse class="cls-4" cx="73.76" cy="73.68" rx="72.12" ry="72.04"/></g><rect class="cls-4" x="65.95" y="36.72" width="8.84" height="8.51"/><path class="cls-5" d="M76.71,38.43v7.41H69V38.43h7.74m1.1-1.09H67.87v9.6h9.94v-9.6Z" transform="translate(-2.47 -1.16)"/><path class="cls-6" d="M71.8,40.59a2.53,2.53,0,0,0-.27,1.28,4.3,4.3,0,0,0,.13,1.39,1.58,1.58,0,0,0,.91,1,2.88,2.88,0,0,0,.78.11l3.36.06v1.4H69V38.43h7.74v.39a14.54,14.54,0,0,0-4.13,1.09A2,2,0,0,0,71.8,40.59Z" transform="translate(-2.47 -1.16)"/><g class="cls-3"><path class="cls-4" d="M64.72,39a3.43,3.43,0,0,1-3.42-3.43,3.36,3.36,0,0,1,1-2.41,3.36,3.36,0,0,1,2.42-1H102.4a6.3,6.3,0,0,1,5.7,3.63,6.17,6.17,0,0,1,.6,2.66V39Z" transform="translate(-2.47 -1.16)"/><path class="cls-5" d="M102.4,32.67A5.73,5.73,0,0,1,107.6,36a5.52,5.52,0,0,1,.55,2.43H64.72a2.87,2.87,0,0,1-2-4.9,2.82,2.82,0,0,1,2-.84H102.4m0-1.1H64.72a4,4,0,0,0-1.51.3,3.94,3.94,0,0,0-2.46,3.66,4,4,0,0,0,4,4h44.53v-1.1a6.61,6.61,0,0,0-.67-2.91,6.83,6.83,0,0,0-6.18-3.93Z" transform="translate(-2.47 -1.16)"/></g><path class="cls-4" d="M64.72,39a3.43,3.43,0,0,1-3.42-3.43,3.36,3.36,0,0,1,1-2.41,3.36,3.36,0,0,1,2.42-1H102.4a6.3,6.3,0,0,1,5.7,3.63,6.17,6.17,0,0,1,.6,2.66V39Z" transform="translate(-2.47 -1.16)"/><path class="cls-5" d="M102.4,32.67A5.73,5.73,0,0,1,107.6,36a5.52,5.52,0,0,1,.55,2.43H64.72a2.87,2.87,0,0,1-2-4.9,2.82,2.82,0,0,1,2-.84H102.4m0-1.1H64.72a4,4,0,0,0-1.51.3,3.94,3.94,0,0,0-2.46,3.66,4,4,0,0,0,4,4h44.53v-1.1a6.61,6.61,0,0,0-.67-2.91,6.83,6.83,0,0,0-6.18-3.93Z" transform="translate(-2.47 -1.16)"/><path class="cls-6" d="M108.15,38.41H64.72a2.87,2.87,0,0,1-2-4.9,2.78,2.78,0,0,1,.94-.63.94.94,0,0,0,0,.16,2,2,0,0,0,1.18,2.36,4.3,4.3,0,0,0,1.34.19c11,.36,16.18.55,27.17.51,4.18,0,8.38-.07,12.56-.15.59,0,1.17,0,1.76,0A5.52,5.52,0,0,1,108.15,38.41Z" transform="translate(-2.47 -1.16)"/><path class="cls-4" d="M61.3,54.55v-5.4a3.84,3.84,0,0,1,1.16-2.75,3.3,3.3,0,0,1,.83-.61A3.64,3.64,0,0,1,65,45.3H80.51l.28,0a3.81,3.81,0,0,1,2.44,1.11,3.8,3.8,0,0,1,1.15,2.73v5.4Z" transform="translate(-2.47 -1.16)"/><path class="cls-5" d="M80.51,45.84h.17a3.18,3.18,0,0,1,1.45.41,3,3,0,0,1,.7.54,3.27,3.27,0,0,1,1,2.35V54h-22V49.15a3.27,3.27,0,0,1,1-2.35,2.44,2.44,0,0,1,.7-.53A3.06,3.06,0,0,1,65,45.85H80.51m0-1.1H65.16a1.63,1.63,0,0,0-.28,0,4.06,4.06,0,0,0-1.86.55,3.74,3.74,0,0,0-1,.73,4.34,4.34,0,0,0-1.3,3.11v6H84.93v-6A4.37,4.37,0,0,0,83.6,46a4.42,4.42,0,0,0-2.81-1.25,1.52,1.52,0,0,0-.28,0Z" transform="translate(-2.47 -1.16)"/><path class="cls-6" d="M83.83,51.79V54h-22V49.15a3.27,3.27,0,0,1,1-2.35,2.24,2.24,0,0,1,.7-.52A3,3,0,0,1,65,45.85h.21a18.74,18.74,0,0,0,.27,3.34,2.67,2.67,0,0,0,.6,1.5,2.81,2.81,0,0,0,1.71.68C73.07,52.14,78.47,51.59,83.83,51.79Z" transform="translate(-2.47 -1.16)"/><path class="cls-4" d="M55.73,62.7V57.56a4.13,4.13,0,0,1,4.12-4.12h26A4.13,4.13,0,0,1,90,57.56V62.7Z" transform="translate(-2.47 -1.16)"/><path class="cls-5" d="M85.83,54a3.57,3.57,0,0,1,3.57,3.57v4.59H56.28V57.56A3.57,3.57,0,0,1,59.85,54h26m0-1.1h-26a4.68,4.68,0,0,0-4.67,4.67v5.69H90.49V57.56a4.67,4.67,0,0,0-4.66-4.67Z" transform="translate(-2.47 -1.16)"/><path class="cls-6" d="M89.4,60.08v2.07H56.28V57.56A3.57,3.57,0,0,1,59.85,54H60c-.08.8-.16,1.58-.25,2.37a4.12,4.12,0,0,0,0,1.4c.37,1.29,1.92,1.8,3.26,2a40.65,40.65,0,0,0,4.94.2l17.25,0A26.62,26.62,0,0,1,89.4,60.08Z" transform="translate(-2.47 -1.16)"/><g class="cls-7"><g class="cls-8"><path class="cls-4" d="M47,176.67c-5,0-9-4.54-9-10.11V81c0-10.7,7.7-19.4,17.17-19.4H90.49c9.48,0,17.19,8.7,17.19,19.41v85.55c0,5.57-4,10.11-9,10.11Z" transform="translate(-2.47 -1.16)"/><path class="cls-5" d="M90.49,62.15c9.19,0,16.64,8.44,16.64,18.86v85.55c0,5.28-3.77,9.56-8.43,9.56H47c-4.66,0-8.44-4.28-8.44-9.56V81c0-10.41,7.45-18.85,16.63-18.85H90.49m0-1.1H55.17c-9.77,0-17.72,9-17.72,20v85.56c0,5.88,4.27,10.66,9.53,10.66H98.7c5.25,0,9.53-4.78,9.53-10.66V81c0-11-8-20-17.74-20Z" transform="translate(-2.47 -1.16)"/><path class="cls-6" d="M65.55,65c-2-.72-4.49-.33-6.55-.32A20.91,20.91,0,0,0,48.46,67.2,13.09,13.09,0,0,0,42,76.65c-.27,1.57-.14,3.14-.31,4.72,0,.43-.21.85-.24,1.29s.27,1.25.13,1.75a44.5,44.5,0,0,1,3-9,15.06,15.06,0,0,1,6.33-6.93,22.63,22.63,0,0,1,6.34-1.82L63,65.56A14.47,14.47,0,0,0,65.55,65Z" transform="translate(-2.47 -1.16)"/></g><path class="cls-9" d="M107.26,39.5h-5.57a.88.88,0,0,1-.89-.88v-.21h7.35v.21A.88.88,0,0,1,107.26,39.5Z" transform="translate(-2.47 -1.16)"/><rect class="cls-5" x="69.73" y="61.31" width="1.28" height="34.26"/><path class="cls-6" d="M47,172.17c-2.73,0-4.95-2.52-4.95-5.61V96.73h61.61v69.83c0,3.09-2.21,5.61-4.94,5.61Z" transform="translate(-2.47 -1.16)"/><g class="cls-3"><rect class="cls-4" x="93.98" y="67.74" width="3.3" height="98.33" rx="1.33" ry="1.33"/></g><rect class="cls-10" x="69.73" y="95.57" width="1.28" height="39.77"/></g><path class="cls-11" d="M76.24,148.53A73.69,73.69,0,1,1,150,74.85,73.8,73.8,0,0,1,76.24,148.53Zm0-144.08a70.4,70.4,0,1,0,70.47,70.4A70.52,70.52,0,0,0,76.24,4.45Z" transform="translate(-2.47 -1.16)"/></g></g></svg>