<?xml version="1.0" standalone="no"?>
<!DOCTYPE svg PUBLIC "-//W3C//DTD SVG 20010904//EN"
 "http://www.w3.org/TR/2001/REC-SVG-20010904/DTD/svg10.dtd">
<svg version="1.0" xmlns="http://www.w3.org/2000/svg"
 width="1280.000000pt" height="1274.000000pt" viewBox="0 0 1280.000000 1274.000000"
 preserveAspectRatio="xMidYMid meet">
<metadata>
Created by potrace 1.15, written by Peter Selinger 2001-2017
</metadata>
<g transform="translate(0.000000,1274.000000) scale(0.100000,-0.100000)"
fill="#000000" stroke="none">
<path d="M7505 12727 c-56 -19 -95 -41 -129 -73 -28 -27 -35 -28 -125 -29
-112 0 -167 -21 -234 -88 -63 -63 -92 -137 -92 -232 1 -100 26 -162 93 -228
93 -92 226 -121 340 -74 l62 25 0 -62 c0 -85 -25 -301 -56 -486 -25 -149 -79
-409 -88 -417 -2 -2 -64 7 -137 21 -214 41 -462 68 -709 79 l-55 2 -9 150
c-10 178 6 622 29 768 25 163 57 252 110 307 76 78 62 192 -33 283 -23 22 -37
28 -63 25 -28 -3 -38 -11 -66 -60 -35 -60 -64 -78 -89 -57 -9 7 -31 37 -50 66
-28 44 -39 53 -63 53 -40 0 -86 -41 -118 -103 -21 -43 -25 -60 -20 -109 4 -51
11 -65 45 -102 62 -67 99 -187 122 -391 14 -134 25 -616 16 -736 l-8 -96 -152
-7 c-600 -25 -1221 -185 -1793 -461 l-172 -83 -43 46 c-101 109 -297 414 -461
717 -184 341 -254 555 -216 663 26 76 -47 183 -151 217 -42 14 -56 15 -80 5
-32 -13 -40 -33 -40 -111 0 -87 -30 -100 -115 -49 -60 36 -75 37 -103 7 -28
-30 -41 -102 -31 -168 11 -66 61 -122 124 -138 94 -24 209 -143 370 -386 134
-201 267 -431 369 -639 66 -132 133 -302 124 -311 -2 -2 -46 -31 -98 -65 -197
-129 -401 -289 -589 -459 l-104 -95 -67 71 c-94 98 -230 264 -230 280 0 8 11
13 28 13 42 0 126 44 172 90 126 126 127 333 1 459 -124 124 -328 128 -454 9
-34 -32 -37 -33 -123 -33 -78 0 -96 -4 -142 -28 -67 -35 -122 -90 -153 -153
-20 -41 -24 -64 -24 -138 0 -87 -1 -89 -34 -125 -135 -143 -109 -379 53 -489
67 -45 145 -66 214 -58 142 17 253 113 285 245 6 28 15 51 19 51 11 0 191
-148 277 -228 l75 -69 -102 -112 c-198 -218 -389 -473 -537 -718 l-87 -143
-116 61 c-392 208 -731 432 -846 560 -51 56 -86 117 -86 147 0 19 -60 82 -97
101 -34 17 -143 14 -183 -7 -46 -22 -51 -58 -16 -122 28 -51 33 -94 14 -106
-6 -4 -43 -9 -82 -10 -80 -4 -96 -16 -96 -71 0 -41 38 -119 77 -155 40 -38
103 -54 152 -40 54 17 85 15 182 -9 150 -38 367 -140 671 -316 163 -94 328
-200 328 -211 0 -5 -24 -60 -54 -123 -29 -63 -76 -170 -104 -239 -53 -131
-152 -422 -152 -447 0 -7 -7 -16 -15 -19 -25 -10 -455 134 -455 152 0 3 16 18
35 35 19 17 49 61 67 97 64 129 38 275 -67 376 -118 115 -313 119 -436 8 -49
-44 -109 -144 -109 -182 0 -8 -21 -23 -48 -34 -69 -29 -154 -118 -178 -186
-37 -108 -18 -226 51 -316 21 -28 23 -36 14 -70 -6 -21 -9 -70 -7 -108 15
-287 376 -409 567 -191 69 79 97 204 67 300 -8 27 -13 51 -10 54 12 12 447
-70 466 -88 5 -4 -5 -67 -22 -141 -36 -165 -76 -439 -90 -619 -21 -277 -11
-690 24 -956 7 -55 12 -101 11 -103 -6 -7 -220 -42 -375 -61 -273 -33 -437
-44 -626 -38 -203 5 -277 20 -337 68 -51 41 -126 50 -183 21 -48 -25 -113 -88
-120 -118 -10 -41 5 -61 64 -87 32 -13 64 -32 71 -41 20 -24 2 -57 -54 -97
-25 -18 -48 -44 -52 -57 -11 -45 60 -107 152 -133 58 -16 134 9 170 57 66 87
243 151 565 203 232 37 519 67 694 72 l69 2 19 -89 c59 -285 183 -660 313
-942 26 -57 45 -105 43 -107 -11 -12 -222 -126 -339 -186 -131 -65 -322 -149
-340 -149 -5 0 -9 33 -9 73 0 181 -145 322 -330 321 -122 0 -226 -68 -282
-182 -28 -57 -33 -77 -33 -142 0 -60 5 -86 27 -133 l27 -57 -18 -43 c-84 -195
38 -419 247 -453 35 -5 45 -13 66 -49 32 -54 96 -112 155 -139 69 -31 198 -29
266 4 73 36 138 105 165 176 29 77 25 196 -9 262 -31 60 -83 115 -134 142
l-44 24 26 21 c89 76 589 365 629 365 5 0 40 -55 78 -122 170 -301 381 -589
638 -872 l81 -89 -80 -75 c-94 -88 -246 -217 -274 -232 -18 -9 -21 -6 -27 27
-17 94 -92 190 -182 234 -66 33 -205 34 -275 2 -67 -31 -141 -110 -167 -180
-42 -112 -17 -248 63 -335 32 -35 33 -39 33 -120 -1 -100 28 -172 94 -238 66
-66 138 -95 238 -94 81 0 85 -1 119 -33 65 -59 117 -78 218 -78 76 0 98 4 140
24 63 32 124 93 156 156 34 71 35 208 0 277 -44 91 -140 165 -234 182 l-38 7
19 31 c23 36 215 258 266 307 l35 34 44 -39 c284 -249 442 -373 635 -499 95
-62 102 -68 96 -93 -26 -107 -194 -445 -353 -710 -233 -389 -386 -569 -510
-602 -41 -11 -76 -39 -108 -86 -17 -26 -19 -146 -4 -186 5 -15 22 -34 35 -44
25 -15 28 -15 85 15 98 51 121 41 121 -54 0 -80 17 -105 71 -105 45 0 110 29
151 68 41 38 63 112 47 159 -31 96 20 270 166 558 167 332 366 649 524 835
l29 34 179 -86 c341 -166 696 -289 1042 -362 62 -13 115 -27 118 -30 17 -17
-37 -372 -98 -646 -111 -500 -231 -794 -351 -856 -33 -17 -67 -82 -68 -130 0
-85 61 -194 110 -194 13 0 41 20 70 50 70 73 98 68 130 -24 11 -33 25 -65 31
-72 30 -36 116 5 175 81 41 54 46 137 11 191 -48 74 -59 214 -32 421 56 432
256 1155 314 1139 110 -31 792 -43 1031 -18 158 16 464 66 599 98 57 13 106
22 108 20 16 -16 93 -388 93 -448 0 -22 -4 -29 -14 -25 -170 65 -356 -9 -428
-171 -33 -73 -31 -190 3 -263 54 -114 152 -181 275 -187 38 -2 88 1 109 7 34
9 42 8 60 -8 33 -31 95 -60 153 -72 65 -13 140 -1 209 33 57 29 126 105 149
163 10 28 23 45 33 45 32 0 137 58 173 96 118 124 119 329 2 449 -66 68 -141
100 -234 100 -65 0 -85 -5 -142 -33 -36 -18 -80 -48 -97 -67 -17 -19 -33 -35
-35 -35 -13 0 -84 193 -139 377 l-25 83 86 26 c220 67 465 165 691 277 l144
71 46 -53 c211 -244 580 -896 656 -1156 26 -90 32 -185 15 -229 -10 -28 11
-108 39 -140 31 -36 114 -76 158 -76 58 0 73 18 73 91 0 107 29 122 125 68 36
-20 61 -28 75 -24 45 14 72 124 50 205 -14 54 -76 120 -112 120 -54 0 -173
100 -271 227 -198 257 -528 851 -591 1062 l-14 49 116 78 c206 136 393 283
579 452 51 46 96 82 101 80 14 -6 173 -181 239 -263 l63 -79 -65 -21 c-83 -27
-139 -67 -181 -128 -115 -168 -49 -397 139 -482 51 -24 68 -27 140 -23 92 4
149 26 207 80 33 32 37 33 120 33 101 1 174 29 237 92 65 65 88 123 89 229 2
87 3 91 34 125 18 19 44 59 59 89 35 73 37 191 4 262 -31 68 -104 142 -166
168 -62 27 -157 36 -212 21 -113 -30 -212 -130 -237 -238 -7 -29 -15 -53 -18
-53 -12 0 -150 115 -247 206 l-103 95 97 107 c447 494 791 1085 990 1704 27
82 52 148 56 148 26 0 414 -188 566 -274 97 -56 183 -109 229 -144 l33 -25
-30 -14 c-57 -28 -110 -83 -142 -149 -79 -160 -13 -347 153 -436 36 -19 58
-23 138 -23 83 0 101 3 145 27 58 30 130 103 151 154 12 29 19 34 48 34 48 0
150 55 191 102 62 73 80 122 80 218 0 67 -5 95 -23 134 l-22 49 22 45 c32 68
36 180 8 254 -26 71 -98 149 -165 180 -40 19 -67 23 -140 23 -79 0 -97 -4
-142 -28 -117 -61 -178 -160 -178 -289 0 -56 -4 -78 -13 -78 -71 0 -756 334
-853 417 -15 12 -15 20 2 91 85 352 127 831 109 1236 -6 116 -12 223 -16 239
-5 25 -2 29 51 53 188 83 768 204 1127 235 106 10 159 10 233 1 89 -11 165
-37 180 -62 3 -5 34 -10 69 -10 53 0 70 5 107 29 52 35 87 79 95 121 8 40 -6
55 -74 80 -53 20 -82 42 -82 63 0 5 25 35 56 67 47 50 55 63 50 85 -9 35 -77
82 -141 96 -73 16 -147 -9 -181 -63 -58 -91 -223 -166 -536 -242 -336 -82
-811 -154 -947 -144 l-44 3 -32 160 c-57 282 -138 557 -241 814 -62 154 -69
131 65 212 235 141 728 355 1005 436 154 44 304 56 366 28 87 -39 191 17 241
131 21 47 17 89 -10 103 -9 5 -41 12 -72 15 -95 12 -109 46 -49 121 16 20 32
45 35 55 16 51 -61 99 -159 100 -84 0 -139 -33 -170 -103 -25 -58 -106 -138
-201 -202 -179 -118 -696 -351 -989 -444 -112 -36 -226 -62 -238 -55 -5 3 -22
32 -39 66 -52 103 -158 277 -263 432 -56 81 -105 155 -111 163 -8 11 1 25 40
60 161 144 474 379 642 481 l88 53 7 -58 c15 -114 92 -219 196 -266 71 -32
189 -30 262 4 113 53 180 151 188 273 5 88 -8 139 -53 207 -33 48 -35 54 -24
87 17 53 7 178 -20 230 -55 107 -150 170 -268 179 -66 5 -69 7 -111 54 -24 27
-67 60 -100 76 -49 24 -69 28 -142 28 -73 0 -93 -4 -142 -28 -138 -68 -211
-222 -174 -365 28 -109 103 -196 198 -230 27 -9 48 -20 48 -23 0 -10 -137
-138 -238 -222 -183 -152 -503 -383 -521 -375 -4 2 -55 57 -113 123 -280 318
-635 627 -966 840 -77 50 -91 62 -86 80 75 254 425 875 644 1142 66 80 161
161 200 169 53 11 87 33 115 74 27 38 30 52 30 114 -1 81 -22 132 -59 142 -16
4 -41 -4 -78 -25 -93 -53 -118 -38 -118 66 0 76 -15 98 -67 97 -44 -1 -115
-34 -156 -72 -37 -35 -60 -111 -45 -153 16 -47 4 -163 -28 -259 -89 -268 -455
-899 -661 -1139 l-29 -33 -129 65 c-254 127 -524 233 -774 304 l-133 37 6 86
c16 207 88 614 141 795 14 49 28 91 29 93 2 1 18 -12 37 -29 58 -55 133 -83
219 -83 130 0 234 65 291 180 62 126 38 277 -61 372 -48 47 -110 80 -171 90
-37 6 -47 13 -66 47 -33 60 -93 116 -152 143 -65 30 -167 38 -226 19z"/>
</g>
</svg>
