<svg xmlns="http://www.w3.org/2000/svg" xmlns:xlink="http://www.w3.org/1999/xlink" viewBox="0 0 147.53 151.33"><defs><style>.cls-1{fill:none;}.cls-2{isolation:isolate;}.cls-3{mix-blend-mode:overlay;}.cls-4{fill:#fff;}.cls-5{clip-path:url(#clip-path);}.cls-6{opacity:0.5;}.cls-7{fill:#98e6f9;}.cls-8{fill:#105c8e;}.cls-9{opacity:0.2;}.cls-10{fill:#7a0000;}</style><clipPath id="clip-path" transform="translate(-2.47 0.08)"><circle id="SVGID" class="cls-1" cx="76.24" cy="73.68" r="72.12"/></clipPath></defs><title>hands</title><g class="cls-2"><g id="Layer_1" data-name="Layer 1"><g class="cls-3"><circle class="cls-4" cx="73.76" cy="73.76" r="72.12"/></g><g class="cls-5"><g class="cls-6"><path class="cls-7" d="M100.78,44.18a9,9,0,0,0-6.58-8.63,6.07,6.07,0,0,0,.35-2,6,6,0,0,0-6-6,5.88,5.88,0,0,0-2.88.78,9.55,9.55,0,0,0-18.24,3.95,9.25,9.25,0,0,0,.1,1.3,5,5,0,1,0-7.16,6.91,7.68,7.68,0,0,0,8.46,12.72A5.39,5.39,0,0,0,76.43,56a5.92,5.92,0,0,0,10.65.33,4.74,4.74,0,0,0,1.07.11A5.25,5.25,0,0,0,93.06,53,8.94,8.94,0,0,0,100.78,44.18Z" transform="translate(-2.47 0.08)"/></g><g class="cls-6"><path class="cls-7" d="M97.81,110.24a9,9,0,0,0-6.58-8.63,6.07,6.07,0,0,0,.35-2,5.92,5.92,0,0,0-8.84-5.18,9.54,9.54,0,0,0-18.23,4,11.22,11.22,0,0,0,.09,1.31,5,5,0,0,0-3.94-1.94,5,5,0,0,0-5,5,5,5,0,0,0,1.81,3.82,7.68,7.68,0,0,0,8.45,12.73,5.46,5.46,0,0,0,5,3.36,5.4,5.4,0,0,0,2.53-.65,5.92,5.92,0,0,0,10.64.34,5.47,5.47,0,0,0,1.07.11,5.25,5.25,0,0,0,4.91-3.41A9,9,0,0,0,97.81,110.24Z" transform="translate(-2.47 0.08)"/></g><path class="cls-4" d="M48.36,150.7a83,83,0,0,1-15.74-1.51,82.08,82.08,0,0,1-8.8-2.22l-.53-.16.17-.53q.42-1.32.87-2.64c.07-.22.14-.49.21-.78a7.17,7.17,0,0,1,.75-2.05l4.61-14.68c.28-.87.57-1.75.86-2.62A63.92,63.92,0,0,0,32.68,117a21.8,21.8,0,0,0,.52-4.11,21,21,0,0,0-2.52-10.65c-.47-.86-.9-1.72-1.32-2.64S28.6,97.88,28.24,97l-.42-1c-.36-.88-.73-1.79-1.15-2.77A28.66,28.66,0,0,1,25.3,89c-.54-2.09-1-4.25-1.38-6.41-.18-1-.29-2-.4-3-.12-1.15-.25-2.33-.48-3.45a33.63,33.63,0,0,0-3.22-8.41c-.39-.76-.8-1.51-1.2-2.25-.17-.31-.37-.63-.57-1A8.62,8.62,0,0,1,16.81,62l-.06-.29a4,4,0,0,1-.05-.76l0-.29.05-.23a2.63,2.63,0,0,1,.23-.65,3.49,3.49,0,0,1,1.91-1.61,7.22,7.22,0,0,1,2.61-.46,7.74,7.74,0,0,1,1.72.19c2.56.62,4.88,2.44,7.11,5.57a44.05,44.05,0,0,1,3.82,6.46l.3.65a18.41,18.41,0,0,0,1.66,3l.11-.12.45-.51.19-.25a9.79,9.79,0,0,0,.87-1.37l.07-.12.21-.44.12-.29c.05-.1.24-.6.24-.6l.18-.55.16-.54.12-.48c.09-.34.18-.69.26-1l.12-.52q.63-2.73,1.31-5.43c.57-2.29,1.19-4.65,1.84-7L43,52c.3-1.05.57-2,.86-3l.56-1.88c.22-.72.41-1.36.61-2l.21-.79.17-.58c.09-.32.2-.69.33-1.09l.27-.82.32-.91.29-.75c.12-.3.24-.59.37-.89s.25-.56.38-.84l.29-.58c0-.11.11-.22.17-.33l.18-.33c.17-.31.35-.6.53-.88.07-.12.15-.24.23-.35l.07-.09c.19-.26.32-.43.45-.58s.39-.43.59-.62l.26-.22c.05,0,.13-.1.22-.17l.19-.13.2-.12.09-.05.23-.1.1,0a3,3,0,0,1,.6-.17l.23,0h.12l.51,0,.16,0a4.56,4.56,0,0,1,.44.14,3.33,3.33,0,0,1,.58.33,5.29,5.29,0,0,1,1.71,3.46,17.88,17.88,0,0,1,.26,2.84c0,.7,0,1.48,0,2.32a67.44,67.44,0,0,1-1.25,9.26h0s-.25,1.53-.5,3.5c-.19,1.49-.35,2.91-.45,4.1-.06.8-.11,1.56-.13,2.23a7.64,7.64,0,0,0,.12,1.92,3,3,0,0,0,.86-1.36c.05-.11.09-.22.13-.33a25.09,25.09,0,0,0,.82-2.72l0-.18c.07-.24.12-.5.17-.77a8.6,8.6,0,0,1,.56-1.91L59,46.22l.58,0L59,46l1.4-5,1-3.3c.24-.85,1-3.27,1-3.27l.33-1.09a14,14,0,0,1,2.22-4.58A4.54,4.54,0,0,1,67.71,27l.48,0a2.36,2.36,0,0,1,.92.16c1.46.71,2.41,2.26,2.85,4.59A26.83,26.83,0,0,1,72,39.1a75.06,75.06,0,0,1-1.65,9.48q-.15.66-.3,1.29c-.9,3.71-1.77,6.44-1.79,6.5h0s-.42,2-.88,4.37c-.63,3.29-.89,5-1,5.88l.1-.15A22.33,22.33,0,0,0,68,63.41c.07-.17.15-.38.23-.62l.24-.68.57-1.83c.19-.64.4-1.35.62-2.11l2.17-7.6L73,46.67l.57,0L73,46.56c.36-1.21.71-2.36,1-3.42L74.46,42l.31-.92c.14-.41.27-.76.39-1.08l.21-.55.11-.26q.21-.5.42-.93l.22-.41c.12-.21.23-.4.35-.59s.17-.26.26-.38a6.62,6.62,0,0,1,.67-.79,4.26,4.26,0,0,1,.66-.56,2.92,2.92,0,0,1,.32-.21,3.36,3.36,0,0,1,.33-.16,3.58,3.58,0,0,1,.63-.21l.13,0a1.72,1.72,0,0,1,.39,0h.25l.41.05.22.06a1.48,1.48,0,0,1,.29.12l.25.15a6.4,6.4,0,0,1,2.52,4.56,29.13,29.13,0,0,1-.63,10.07,79.58,79.58,0,0,1-2.92,10.45c-.9,3.61-1.8,7.56-2.17,9.71l.55.1-.5-.21.19-.51,4.27-9.37.25-.51.45-.88.27-.48a24.94,24.94,0,0,1,1.33-2.15l.42-.6q.22-.3.45-.57c.15-.19.31-.37.46-.54a7.8,7.8,0,0,1,1-.9,4.22,4.22,0,0,1,1.23-.68,1.82,1.82,0,0,1,.29-.08l.32,0h.13a1.66,1.66,0,0,1,.32,0,1.85,1.85,0,0,1,.58.18l.18.09c1.48.79,2.06,2,1.93,4.1a46.69,46.69,0,0,1-2,10.24c-.46,1.59-1,3.17-1.45,4.71-.25.8-.51,1.59-.75,2.37a122.3,122.3,0,0,1-8.26,20.09,122.34,122.34,0,0,1-7,11.81c-.88,1.31-1.89,2.55-2.87,3.75a27.63,27.63,0,0,0-4.54,6.86,27.45,27.45,0,0,0-1.42,4.83,73.2,73.2,0,0,0-1,9.11c-.11,1.56-.23,3.17-.39,4.75l-1.51,14.18-.42.06A83.6,83.6,0,0,1,48.36,150.7Z" transform="translate(-2.47 0.08)"/><path class="cls-8" d="M68.19,27.52a2,2,0,0,1,.71.11c1.36.67,2.14,2.19,2.52,4.2a26.87,26.87,0,0,1,.08,7.22,77.46,77.46,0,0,1-1.64,9.41c-.1.44-.2.86-.3,1.27-.92,3.77-1.78,6.48-1.78,6.48s-.44,2-.89,4.42c-.63,3.26-1.3,7.12-1,7.12h0a.61.61,0,0,0,.18,0l.08,0,.08,0a2.35,2.35,0,0,0,.3-.27l.06-.08,0-.05.06-.08.18-.26a.41.41,0,0,0,.07-.11,22.32,22.32,0,0,0,1.54-3.14c.08-.17.16-.39.25-.65l.06-.17c.06-.16.12-.34.18-.53l0-.15.17-.52c0-.06,0-.12,0-.18l0-.07c.08-.29.18-.59.27-.91.2-.64.41-1.36.63-2.12l.12-.4c0-.1.06-.21.08-.31.18-.59.35-1.2.53-1.83,0-.1.05-.19.08-.3l.77-2.68c.17-.63.35-1.26.53-1.89l.06-.19c.21-.73.42-1.45.62-2.17.09-.29.17-.58.26-.87a.08.08,0,0,1,0,0c.07-.27.15-.54.23-.8a.56.56,0,0,1,0-.12c.35-1.2.7-2.35,1-3.4l0-.07c.08-.24.16-.47.23-.7l.12-.37.24-.7c0-.08,0-.16.08-.24.13-.37.25-.71.37-1l.06-.14.15-.41c0-.09.07-.17.11-.25.13-.32.27-.62.4-.89l.21-.4c.11-.19.22-.38.33-.55a3.27,3.27,0,0,1,.25-.36,5.71,5.71,0,0,1,.6-.72,4.25,4.25,0,0,1,.59-.5,2.2,2.2,0,0,1,.28-.18l.27-.14a3.23,3.23,0,0,1,.53-.17l.1,0,.33,0h.19l.33,0,.19,0,.18.07,0,0,.14.09a5.93,5.93,0,0,1,2.3,4.21,29.2,29.2,0,0,1-.63,9.86,78.56,78.56,0,0,1-2.89,10.37s-2.88,11.46-2.32,11.65l.07,0a.48.48,0,0,0,.31-.18,4.3,4.3,0,0,0,.64-1.06l.09-.19c0-.07,0-.13.08-.19s0,0,0,0,.12-.28.15-.37a1.26,1.26,0,0,0,0-.12l4.27-9.38.11-.22a2.08,2.08,0,0,1,.13-.26c.06-.14.14-.29.23-.47l.22-.4.12-.23.14-.25c.36-.64.8-1.38,1.3-2.1.07-.1.13-.2.2-.29l.21-.29.43-.56q.22-.27.45-.51a7.68,7.68,0,0,1,.89-.84,3.48,3.48,0,0,1,1-.59l.24-.06a.91.91,0,0,1,.23,0h.12a.75.75,0,0,1,.21,0,1.41,1.41,0,0,1,.44.14l.15.07c1.31.7,1.77,1.71,1.65,3.58a46.67,46.67,0,0,1-2,10.13c-.7,2.41-1.48,4.78-2.19,7.06a121.49,121.49,0,0,1-8.23,20,119.91,119.91,0,0,1-7,11.75c-2.42,3.62-5.81,6.63-7.46,10.72a27.44,27.44,0,0,0-1.44,4.92c-.93,4.55-1,9.32-1.45,13.91s-1,9.17-1.46,13.76a83.6,83.6,0,0,1-12,.88A82,82,0,0,1,24,146.45q.42-1.32.87-2.64a11.66,11.66,0,0,1,.94-2.76l.21-.65c.39-1.24.78-2.48,1.16-3.72a0,0,0,0,0,0,0q1.63-5.18,3.26-10.36c.95-3,2.11-6.05,2.78-9.17a23,23,0,0,0,.54-4.22A21.63,21.63,0,0,0,31.17,102c-.5-.91-.93-1.77-1.31-2.61s-.76-1.7-1.11-2.57c-.5-1.19-1-2.42-1.58-3.8a28.77,28.77,0,0,1-1.33-4.16c-.55-2.11-1-4.24-1.38-6.38S24,78.11,23.58,76a34,34,0,0,0-3.27-8.55c-.4-.77-.8-1.52-1.21-2.26a15,15,0,0,1-1.76-3.37l0-.13a.36.36,0,0,0,0-.11,3.77,3.77,0,0,1,0-.66c0-.07,0-.15,0-.23l0-.1,0-.11a2,2,0,0,1,.18-.5,3,3,0,0,1,1.62-1.35,7.15,7.15,0,0,1,4-.24c2.91.7,5.13,3,6.79,5.35a43.41,43.41,0,0,1,3.76,6.38,18.83,18.83,0,0,0,2.41,4.24l.06,0c.18-.16.34-.33.51-.51l.46-.53.22-.29a11.05,11.05,0,0,0,.91-1.42l.06-.13c.08-.15.16-.3.23-.46l.13-.31c0-.1.09-.21.12-.31s.08-.21.12-.32.13-.38.19-.57a.19.19,0,0,0,0-.07,3,3,0,0,0,.1-.32s0-.11,0-.16.09-.33.14-.49c.08-.35.17-.7.25-1l.12-.53q.63-2.72,1.31-5.42.89-3.51,1.84-7c.2-.71.39-1.42.59-2.13l.06-.19c.27-1,.55-1.93.84-2.9a2.17,2.17,0,0,1,.07-.24c.16-.55.32-1.1.49-1.65a.31.31,0,0,1,0-.08c.19-.63.39-1.27.58-1.91l0-.06c0-.08.06-.26.13-.5a.29.29,0,0,0,0-.09l.07-.23c0-.08,0-.17.07-.26a.56.56,0,0,1,0-.12l0-.12c.09-.32.21-.68.33-1.07l.1-.3c0-.17.11-.34.17-.52s.14-.4.22-.61l.06-.17c.06-.17.12-.34.19-.51l.13-.34c.12-.29.24-.57.36-.87s.25-.55.37-.82.13-.26.2-.4l.08-.17.17-.32.18-.32c.16-.3.33-.58.51-.86.07-.1.14-.21.22-.31l.12-.18c.12-.16.24-.32.37-.47a5.73,5.73,0,0,1,.54-.56l.1-.09.12-.1.21-.16.16-.11,0,0,.17-.11,0,0,.19-.08.1-.05a2,2,0,0,1,.48-.12l.16,0h.2a1.63,1.63,0,0,1,.31,0l.15,0a2.67,2.67,0,0,1,.34.11,2.59,2.59,0,0,1,.46.26A4.84,4.84,0,0,1,55,37.79a18,18,0,0,1,.25,2.76c0,.74,0,1.51,0,2.28A66.18,66.18,0,0,1,54,52s-.25,1.55-.5,3.55c-.17,1.28-.34,2.75-.45,4.13-.07.8-.12,1.57-.14,2.25,0,1.43.08,2.45.44,2.52h.13l.16,0c.52-.14,1-.92,1.31-1.73.05-.11.09-.23.14-.34a26.29,26.29,0,0,0,.87-3,13.82,13.82,0,0,1,.72-2.63c.07-.26.14-.53.22-.81l.12-.44c.16-.6.33-1.23.52-1.89l.21-.76c0-.17.09-.34.14-.52s.17-.6.25-.91.18-.63.26-1,.16-.55.23-.82l.24-.84c.07-.28.15-.56.23-.85s.11-.37.16-.57.11-.38.16-.57.11-.38.16-.57l0-.09.3-1,.48-1.71c0-.1.06-.21.08-.31s.1-.36.16-.53l.15-.56L61,41.2l.5-1.76c.15-.53.3-1,.44-1.54l.7-2.38c.06-.22.13-.44.19-.65s.08-.26.11-.39a2.41,2.41,0,0,0,.08-.25c0-.11.07-.21.1-.32s.07-.24.11-.36a12.83,12.83,0,0,1,2.12-4.39,4,4,0,0,1,2.47-1.61l.4,0m0-1.1a3.52,3.52,0,0,0-.56,0,5.05,5.05,0,0,0-3.17,2,14.26,14.26,0,0,0-2.31,4.76l-.07.21,0,.15-.1.33,0,.09,0,.14,0,.15-.07.26-.13.41-.07.24c-.21.74-.45,1.54-.69,2.39-.11.38-.23.77-.34,1.17l-.11.37-.11.39-.39,1.37-.14.5-.09.33-.1.35-.06.21-.12.41,0,.12c0,.1-.06.2-.08.29l-.49,1.73-.15.53-.14.52,0,.1c0,.19-.1.37-.16.56l-.07.25-.09.32c0,.19-.09.35-.14.51l0,.07-.23.85-.08.3-.15.53-.23.83-.27.95-.08.31-.17.61-.14.52-.13.46-.08.3c-.18.66-.36,1.29-.52,1.89,0,.16-.08.3-.12.43l0,.16-.16.57a9.15,9.15,0,0,0-.57,2c-.06.26-.11.51-.17.74l0,.19A24.91,24.91,0,0,1,54,62c0,.05,0,.1-.05.14V62c0-.6.06-1.34.13-2.19.1-1.19.25-2.6.45-4.08.23-1.81.45-3.26.49-3.49a65.73,65.73,0,0,0,1.26-9.31c0-.85.06-1.64,0-2.36a19.19,19.19,0,0,0-.25-2.93,5.74,5.74,0,0,0-1.94-3.8,2.93,2.93,0,0,0-.69-.39,3.49,3.49,0,0,0-.49-.16l-.25,0a3.08,3.08,0,0,0-.46-.05H52l-.26,0a3.75,3.75,0,0,0-.69.19l-.18.07a2.24,2.24,0,0,0-.22.11l-.06,0,0,0-.17.1,0,0-.05,0-.2.13-.27.21-.1.09h0l0,0-.12.11a7.93,7.93,0,0,0-.63.65q-.21.25-.42.54l-.07.09,0,.08-.25.36c-.19.3-.38.61-.55.92l-.18.34c-.07.12-.13.24-.19.36a1.65,1.65,0,0,0-.1.19l-.19.39c-.13.28-.26.56-.38.85s-.26.61-.37.9l-.08.18-.07.18c0,.12-.09.25-.14.37l-.05.15-.06.16-.23.64-.17.52,0,.14-.06.17c-.13.42-.25.79-.34,1.12l0,.12,0,.12-.08.26,0,.08,0,.18,0,.09c-.06.2-.1.36-.13.46h0V45l-.57,1.89s0,.07,0,.12c-.15.51-.31,1.06-.48,1.61l0,.12,0,.12-.84,2.91,0,.09,0,.11-.6,2.13c-.65,2.37-1.27,4.73-1.84,7-.46,1.82-.9,3.65-1.32,5.43l-.12.53c-.08.34-.16.69-.25,1l-.12.47-.05.14-.09.31v.07c0,.18-.11.35-.17.53l-.11.27c0,.11-.07.21-.11.3s-.08.19-.13.28-.12.27-.19.4l.93.6-1-.53h0l0,0a9.68,9.68,0,0,1-.81,1.27c-.06.08-.12.17-.19.25l-.07.08A21.71,21.71,0,0,1,35,70.29c-.1-.21-.2-.43-.31-.65a44.74,44.74,0,0,0-3.86-6.54c-2.31-3.24-4.74-5.13-7.43-5.78a7.74,7.74,0,0,0-1.84-.21,7.9,7.9,0,0,0-2.83.5,4,4,0,0,0-2.19,1.87,3.29,3.29,0,0,0-.28.76l0,.16,0,.11a2.35,2.35,0,0,0,0,.34,3.94,3.94,0,0,0,.05.91l0,.14,0,.19a9.09,9.09,0,0,0,1.31,2.71c.19.31.38.61.55.92.4.73.8,1.48,1.19,2.23a32.59,32.59,0,0,1,3.17,8.27c.22,1.09.35,2.21.48,3.4.11,1,.22,2,.4,3,.38,2.18.85,4.35,1.39,6.46a29.35,29.35,0,0,0,1.4,4.33c.42,1,.79,1.89,1.15,2.77l.41,1c.34.81.71,1.69,1.13,2.61s.86,1.8,1.34,2.68a20.47,20.47,0,0,1,2.46,10.36,22.62,22.62,0,0,1-.52,4,64.24,64.24,0,0,1-1.9,6.45c-.29.88-.59,1.75-.86,2.63l-1.16,3.69c-.7,2.22-1.39,4.44-2.09,6.66l0,.07h0l-.18.58-1,3.09c-.05.14-.09.29-.14.44l0,.06a7.74,7.74,0,0,0-.78,2.15c-.07.28-.14.54-.21.75-.29.87-.58,1.76-.87,2.65l-.33,1,1,.33a84.42,84.42,0,0,0,8.86,2.23,83.34,83.34,0,0,0,28.06.62l.84-.12.09-.85L62.92,136l0-.36c.17-1.58.29-3.19.4-4.76a71.66,71.66,0,0,1,1-9,26.91,26.91,0,0,1,1.39-4.73,27,27,0,0,1,4.45-6.72c1-1.21,2-2.46,2.91-3.79a125.64,125.64,0,0,0,7-11.87,123.56,123.56,0,0,0,8.3-20.18c.24-.78.49-1.57.74-2.37.49-1.53,1-3.12,1.46-4.72a47.17,47.17,0,0,0,2-10.36c.09-1.55-.08-3.47-2.23-4.62l-.16-.08a2.72,2.72,0,0,0-.78-.25,2.25,2.25,0,0,0-.38,0H89a2.76,2.76,0,0,0-.37,0l-.33.09a4.46,4.46,0,0,0-1.42.78,8.72,8.72,0,0,0-1,.95c-.17.19-.33.37-.49.57l-.46.59-.22.31c-.08.1-.15.21-.22.31-.45.66-.91,1.4-1.35,2.19l-.13.23-.14.26-.23.42c-.08.18-.17.34-.24.48l-.08.17,0,.08-.13.27-2.43,5.34c.35-1.51.74-3.14,1.13-4.7A80,80,0,0,0,83.71,50a29.68,29.68,0,0,0,.63-10.26,6.93,6.93,0,0,0-2.78-4.94l-.17-.11,0,0-.07,0a2.65,2.65,0,0,0-.39-.15l-.26-.07a3,3,0,0,0-.51-.07h-.28a2.63,2.63,0,0,0-.49,0l-.17,0a4.25,4.25,0,0,0-.71.24,3.64,3.64,0,0,0-.39.2,3.19,3.19,0,0,0-.36.22,5.68,5.68,0,0,0-.72.62,6.18,6.18,0,0,0-.72.86c-.1.13-.19.26-.28.4s-.25.4-.37.62-.15.29-.23.44-.29.61-.44,1l-.08.21h0l0,.06c0,.13-.1.27-.16.41l0,.13c-.13.35-.25.69-.38,1.06h0v.06l-.06.17-.23.66,0,.06-.12.37-.1.31-.13.39h0l0,.06c-.34,1.06-.69,2.21-1.06,3.44l0,.07-.25.85h0v0l-.09.3-.16.57-.63,2.16,0,.09,0,.13-.53,1.87L70,55.18l-.07.24,0,.06-.09.32-.43,1.5-.09.31-.05.18-.07.24c-.21.74-.42,1.45-.62,2.09l-.27.9v.06l0,.13,0,.06c-.06.18-.11.35-.16.51l0,.07,0,.09c0,.18-.11.34-.16.5s0,.1,0,.14c-.1.26-.17.46-.24.61v0c.12-.68.27-1.46.44-2.37.41-2.13.81-4,.88-4.35s.93-3,1.78-6.5c.11-.41.21-.84.31-1.28a78.66,78.66,0,0,0,1.66-9.55,27.55,27.55,0,0,0-.09-7.54c-.47-2.51-1.52-4.19-3.11-5l0,0h0a3,3,0,0,0-1.14-.2Z" transform="translate(-2.47 0.08)"/><path class="cls-7" d="M42.13,114.09a23.31,23.31,0,0,1,6.63-2.39c-1.69.27-4.9-2.13-6.25-3a25.8,25.8,0,0,1-5-4.5c-3.43-3.76-6.74-7.85-8.7-12.58-1.73-4.19-2.91-11,1.79-13.75-1.47,1-3.56.22-4.69-1.12A13.6,13.6,0,0,1,23.82,72a37.77,37.77,0,0,0-3.47-7.7c-1-1.72-2.21-3.8-1.31-5.59a2.22,2.22,0,0,0-1.71,2.44,7.2,7.2,0,0,0,1.22,3,48.15,48.15,0,0,1,5,12c1.1,4.19,1.25,8.5,2.33,12.67A28.77,28.77,0,0,0,27.17,93c.59,1.38,1.08,2.61,1.58,3.8.35.87.71,1.71,1.11,2.57s.81,1.7,1.31,2.61a21.63,21.63,0,0,1,2.58,10.92,23,23,0,0,1-.54,4.22c-.67,3.12-1.83,6.16-2.78,9.17q-1.63,5.19-3.26,10.36a0,0,0,0,1,0,0c-.37,1.21-.67,2.53-1.16,3.72l-.21.65a11.66,11.66,0,0,0-.94,2.76q-.45,1.32-.87,2.64a82.16,82.16,0,0,0,8.74,2.2,5.28,5.28,0,0,1-1.49-1.74,6.7,6.7,0,0,1-.42-3.61,54.77,54.77,0,0,1,1.68-8.57c.88-3.48,1.93-7,2.64-10.49A16.88,16.88,0,0,1,38,117a11.08,11.08,0,0,1,3.89-2.81Z" transform="translate(-2.47 0.08)"/><path class="cls-7" d="M36.47,74.75a3.54,3.54,0,0,1-.32-.44A10.71,10.71,0,0,0,38.54,71a21.81,21.81,0,0,0,1.23-4.13Q42.29,56,45.57,45.32s1.62-6.61,4.16-9.62c1-1.15,2.09-1.77,3.31-1.28a2.59,2.59,0,0,1,.46.26,8.92,8.92,0,0,0-3.35,3.49c-.28.56-.43,1.21-.7,1.8a6.57,6.57,0,0,0-.67,2.42,1.84,1.84,0,0,0,.16,1c.24.47.77.75,1,1.24a6.43,6.43,0,0,0-1.75.13,2.39,2.39,0,0,0-1.68,2c-.31,1.08-.59,2.17-.83,3.27a7.88,7.88,0,0,0-.07,1.09c0,.51-.3,1-.34,1.5a2.81,2.81,0,0,0,.89,2.16c-.29-.29-1.16.33-1.3.54a7.76,7.76,0,0,0-.63,1.79,16.74,16.74,0,0,0-.63,3.72,1.59,1.59,0,0,0,.06.65A1.45,1.45,0,0,0,44,62a9.6,9.6,0,0,0,3.1,1.79l-3,0a2.73,2.73,0,0,0-.57,0c-1,.22-1.48,1.44-1.72,2.33a22.42,22.42,0,0,1-1.27,3.64A11.18,11.18,0,0,1,36.47,74.75Z" transform="translate(-2.47 0.08)"/><path class="cls-7" d="M53.91,64.87l-.78-.17c.35-.35.84-.43,1.15-.81A4.68,4.68,0,0,0,55,62.62a12.63,12.63,0,0,0,.59-1.8s5.39-19.89,7.66-27.26a12.8,12.8,0,0,1,2.12-4.4,4,4,0,0,1,2.47-1.61,4.53,4.53,0,0,0-.94,1.59c-.46,1.12-.89,2.25-1.3,3.39-.72,2-1.56,4.41.38,6.06a2.59,2.59,0,0,0-2,.46c-.92.69-1,1.83-1.33,2.85-.45,1.58-.88,3.16-1.32,4.74C60.91,48,60.1,49.45,61,50.75a6.68,6.68,0,0,0,1.27,1.33h-1.6a.9.9,0,0,0-.37.05.87.87,0,0,0-.35.31c-.87,1.21-1.12,3-1.57,4.39-.51,1.59-1,3.16-1.62,4.72a5.3,5.3,0,0,0-.12,1.69,2.23,2.23,0,0,0,.11.93,2.06,2.06,0,0,0,.51.66c.46.45.92.88,1.4,1.3A31.39,31.39,0,0,0,53.91,64.87Z" transform="translate(-2.47 0.08)"/><path class="cls-7" d="M66.82,68.3,66,68a13.39,13.39,0,0,0,2.51-4.33c1.29-3,5.29-19,7.45-24.21a8.66,8.66,0,0,1,1.8-2.92c1.59-1.61,3-.88,3-.88l.19.12a5.25,5.25,0,0,0-2.38,1.81,10.68,10.68,0,0,0-1.5,3.07c-.15.46-.17.91-.31,1.36a4.63,4.63,0,0,0-.3,1.76A5.31,5.31,0,0,0,78,46.5c-.18-.22-1.35-.3-1.64-.35-.52-.09-1-.07-1.26.42a1.56,1.56,0,0,0-.15.85,5.72,5.72,0,0,1-.29,1.47c-.41,1.45-1.24,3.52-.42,5a5.25,5.25,0,0,0,.33.49,4.93,4.93,0,0,0,1.06,1.17,2.85,2.85,0,0,1-1,.06,6.28,6.28,0,0,0-1-.13c-1.21,0-1.27,1.84-1.52,2.72-.34,1.2-.71,2.4-1.15,3.57-.26.68-.64,1.29-.83,2a14.57,14.57,0,0,0-.49,2.52,5.76,5.76,0,0,0,.59,3.25A31,31,0,0,1,66.82,68.3Z" transform="translate(-2.47 0.08)"/><path class="cls-7" d="M78.3,72.51c-.34-.17-.67-.34-1-.49.36.12,1-1,1.07-1.25a10.53,10.53,0,0,0,.47-1.09l4.26-9.38a28.09,28.09,0,0,1,3.1-5.07c1.16-1.42,2.47-2.44,3.62-1.87l.15.07a6,6,0,0,0-2.66,2.11c-.9,1.14-2.32,3-2,4.54a4.07,4.07,0,0,0,1,1.91,2.42,2.42,0,0,0-1.92,0c-.63.38-.9,1.36-1.24,2-1.16,2.16-2.86,4.45-2.9,7A3.29,3.29,0,0,0,80.32,72a4.32,4.32,0,0,0,.43.86l1,1.7A28.51,28.51,0,0,0,78.3,72.51Z" transform="translate(-2.47 0.08)"/><g class="cls-9"><path class="cls-7" d="M50.08,87.25a21.92,21.92,0,0,1,4.28,9.88,49.25,49.25,0,0,1,.31,9.79A22.52,22.52,0,0,0,56,91.82c-.46-1.74-2.76-6.67.29-7.36a4,4,0,0,1,1.64.07,48.55,48.55,0,0,1,14.24,5.21c-.46-.26-1-1.22-1.35-1.62A33.11,33.11,0,0,0,65,83a35.53,35.53,0,0,0-9.16-4.52,32.8,32.8,0,0,0-15.29-1.38c-1.39.24-1.23.69-.33,1.63,1.68,1.78,3.95,2.82,5.83,4.37A24.69,24.69,0,0,1,50.08,87.25Z" transform="translate(-2.47 0.08)"/></g><path class="cls-4" d="M110.68,150.7h-1.3a84.12,84.12,0,0,1-10.91-.88l-.42-.06-1.51-14.18c-.17-1.56-.28-3.15-.39-4.69a72.3,72.3,0,0,0-1.05-9.17,27.36,27.36,0,0,0-1.41-4.83A27,27,0,0,0,89.15,110c-1-1.2-2-2.45-2.88-3.77A122.31,122.31,0,0,1,71,74.36c-.23-.75-.48-1.52-.72-2.3-.5-1.56-1-3.16-1.47-4.77a47.75,47.75,0,0,1-2-10.24c-.13-2.08.44-3.3,1.93-4.1l.13-.07a1.86,1.86,0,0,1,.48-.17l.11,0,.36,0H70l.27,0,.29.07a4.34,4.34,0,0,1,1.27.7,9.48,9.48,0,0,1,1,.9l.44.5c.18.22.33.41.47.61l.22.31c.06.07.13.18.21.28.49.73,1,1.47,1.33,2.16l.27.5.21.39.25.48.23.48,4.3,9.44v.06c0,.06.19.48.2.51-.37-2.16-1.27-6.11-2.19-9.76h0a80.06,80.06,0,0,1-2.9-10.4,29.26,29.26,0,0,1-.62-10.06,6.39,6.39,0,0,1,2.54-4.58l.16-.11s.16-.08.33-.14l.19.51L78.32,35l.15,0,.21,0h.4a2.06,2.06,0,0,1,.42,0l.18,0a2.53,2.53,0,0,1,.59.2,1.79,1.79,0,0,1,.33.18,1.16,1.16,0,0,1,.3.18,5.6,5.6,0,0,1,.65.54,7.53,7.53,0,0,1,.68.82l.2.28.12.2a5.55,5.55,0,0,1,.29.48l.21.41c.15.29.28.59.42.93,0,0,.12.27.12.27s.11.29.15.38v0s.34.92.42,1.16.06.17.08.23l.24.73.12.35.24.71,0,.08v0c.35,1.07.7,2.2,1,3.38l0,.05v.07l.26.87v.08a7.28,7.28,0,0,1,.25.78l1.42,5,.45,1.56h0l.09.44c0,.06,0,.12,0,.18l.73,2.55c.21.73.4,1.35.58,1.93l.07.24c.07.25.14.48.21.7l.09.28v0s.38,1.18.44,1.34l0,.15.2.53,0,.12a21.19,21.19,0,0,0,1.5,3l.09.16c-.12-1.17-.46-3.23-1-5.89-.46-2.36-.89-4.41-.89-4.41h0s-.87-2.73-1.78-6.46c-.1-.42-.2-.84-.3-1.28a76.52,76.52,0,0,1-1.65-9.47A27.27,27.27,0,0,1,87,31.72a6.87,6.87,0,0,1,1.86-3.91,3.36,3.36,0,0,1,1-.67,2.46,2.46,0,0,1,1-.17l.47,0a4.51,4.51,0,0,1,2.81,1.81,13.53,13.53,0,0,1,2.22,4.59,3.75,3.75,0,0,1,.12.39,1.71,1.71,0,0,1,.09.29l.27.89h.13v.47c.14.45.67,2.31.67,2.31.15.5.3,1,.45,1.55l.5,1.75.23.82c0,.19.1.37.16.55l.35,1.27c.12.42.24.86.37,1.29l.48,1.74.16.55c0,.21.1.38.15.55l.47,1.72c.08.28.16.56.23.82s.86,3.14.86,3.14c.19.66.37,1.3.53,1.9,0,.15.07.27.11.41l.19.71,0,.15c.18.66.34,1.27.49,1.79l0,.07v0s.09.31.1.36h.13v.56c.11.35.18.63.24.84l.05.15a1.81,1.81,0,0,1,.06.25l.05.17a11.71,11.71,0,0,0,.41,1.3l.13.32a3,3,0,0,0,.87,1.36,7.27,7.27,0,0,0,.11-1.92c0-.67-.06-1.43-.13-2.23-.13-1.58-.31-3.1-.45-4.1-.25-2-.49-3.52-.49-3.53a63.94,63.94,0,0,1-1.26-9.23c0-.74,0-1.52,0-2.32a18.18,18.18,0,0,1,.25-2.84,5.23,5.23,0,0,1,1.73-3.46,2.14,2.14,0,0,1,.57-.32,1.9,1.9,0,0,1,.4-.14l.07,0h0a.76.76,0,0,1,.19,0,.94.94,0,0,1,.27,0h.16l0,0,.27,0a2.73,2.73,0,0,1,.6.16l.12,0,.34.16.21.14h.06l.15.14.18.15.27.16,0,.08a7.94,7.94,0,0,1,.55.58s.29.36.38.49a1.74,1.74,0,0,1,.11.15l.26.38c.18.27.35.57.53.87l.41.78v0a.36.36,0,0,1,0,.09,3.08,3.08,0,0,1,.19.37l.42.92v0c.1.22.2.45.28.68l.08.08v.12l.09.24c0,.13.11.28.16.43l0,.1-.49.27.54-.1c.08.19.16.4.23.6s.11.36.16.51l.11.33c.13.39.24.76.33,1.08h0a.39.39,0,0,1,0,.14l0,.12a2.3,2.3,0,0,1,.08.27,1.86,1.86,0,0,1,.07.28s0,.08,0,.11h.12v.5l.59,1.94v0c.16.55.33,1.1.48,1.64a2.23,2.23,0,0,1,.08.24c.28,1,.55,1.92.83,2.89l.65,2.33c.73,2.66,1.32,4.89,1.85,7,.45,1.81.88,3.61,1.31,5.42l.12.54.25,1,.13.46a1,1,0,0,1,0,.25h0l.06.18,0,.13c0,.11.18.56.18.56l.23.59a2.38,2.38,0,0,0,.12.27c.08.17.14.31.22.45l.06.13a12.21,12.21,0,0,0,.86,1.36l.22.26c.13.16.28.34.43.5l.11.12a17,17,0,0,0,1.66-3l.31-.65a44.69,44.69,0,0,1,3.81-6.46c2.24-3.14,4.56-5,7.11-5.57l.46-.09a8.36,8.36,0,0,1,1.26-.1,7.25,7.25,0,0,1,2.61.46A3.44,3.44,0,0,1,142,59.73a2.56,2.56,0,0,1,.22.64l0,.14,0,.12,0,.27a5,5,0,0,1,0,.75v.06l0,0,0,.17a8.31,8.31,0,0,1-1.23,2.54c-.2.33-.41.65-.58,1-.42.76-.81,1.5-1.2,2.25a33.71,33.71,0,0,0-3.23,8.41c-.22,1.11-.35,2.28-.47,3.42s-.23,2-.4,3c-.37,2.11-.84,4.27-1.39,6.42a29.3,29.3,0,0,1-1.36,4.24c-.46,1.06-.86,2-1.25,3l-.32.81c-.36.88-.72,1.72-1.13,2.59s-.86,1.8-1.32,2.65a20.81,20.81,0,0,0-2.51,10.63,21.79,21.79,0,0,0,.52,4.13,60.24,60.24,0,0,0,1.93,6.53c.29.87.58,1.73.85,2.59l3.24,10.33,0,.08v.05c.35,1.15.72,2.3,1.09,3.46l.06.19c.06.19.12.38.17.57a7.19,7.19,0,0,1,.76,2.08c.07.28.14.55.21.76.29.87.59,1.75.87,2.62l.18.53-.54.17a82.43,82.43,0,0,1-24.46,3.73Z" transform="translate(-2.47 0.08)"/><path class="cls-8" d="M90.78,27.52a2.68,2.68,0,0,1,.39,0,4,4,0,0,1,2.47,1.62,12.73,12.73,0,0,1,2.11,4.4,2.89,2.89,0,0,1,.11.35,3,3,0,0,1,.1.32l.08.25.12.39c.06.21.13.43.18.65h0q.33,1.09.69,2.37c.15.5.3,1,.45,1.54s.33,1.16.5,1.76c.08.27.16.55.23.82s.1.38.16.56l.15.54.09.31c.16.56.31,1.13.48,1.7.1.36.19.71.29,1.06l0,.1c0,.18.1.37.15.57s.11.37.17.57.1.37.16.56.15.57.22.85l.24.84c.08.28.16.55.23.82s.17.65.26,1h0l.26.92c0,.17.09.34.14.51s.13.51.2.76c.19.66.37,1.3.53,1.89a3.17,3.17,0,0,0,.12.44c.07.28.15.55.22.82h0c.18.67.34,1.28.49,1.8v0c0,.1.05.2.08.29s.11.38.15.55h0l0,.13c.1.37.17.65.23.86,0,.05,0,.09,0,.13s0,.07,0,.1a.93.93,0,0,1,0,.13.28.28,0,0,0,0,.05l0,.16a13.88,13.88,0,0,0,.42,1.34c0,.11.09.23.14.34.35.8.8,1.59,1.32,1.73a.82.82,0,0,0,.22,0h.07c.36-.08.46-1.11.43-2.52,0-.68-.06-1.46-.13-2.27-.12-1.37-.28-2.84-.45-4.12-.26-2-.5-3.54-.5-3.54a64.48,64.48,0,0,1-1.25-9.18c0-.77,0-1.54,0-2.28a19.3,19.3,0,0,1,.24-2.76,4.78,4.78,0,0,1,1.51-3.11,2.09,2.09,0,0,1,.46-.26l.34-.11h.14l.32,0h.2l.16,0a2.81,2.81,0,0,1,.48.12l.09,0,.19.09,0,0,.17.1,0,0,.17.11h0l.19.15.13.09h0l.1.09a7.2,7.2,0,0,1,.54.56c.12.15.25.31.36.47l.13.17.22.33c.18.26.34.55.51.85l.18.32c.06.11.11.22.16.33h0l.08.16c.07.13.14.27.2.4s.25.55.37.81v0c.13.29.25.57.36.86v0c0,.11.09.22.13.32s.12.35.18.52l.06.16.23.61c0,.18.11.35.17.52s.07.2.1.3c.12.39.23.76.32,1.07a.56.56,0,0,1,0,.12l0,.12a2.76,2.76,0,0,1,.08.27,1.8,1.8,0,0,1,.06.22l0,.09c.07.25.1.41.12.5s0,0,0,0v0c.2.64.39,1.27.58,1.91a.31.31,0,0,1,0,.08c.17.55.34,1.1.5,1.65a2.17,2.17,0,0,1,.07.24c.28,1,.56,1.93.83,2.89l.06.2c.2.71.39,1.42.59,2.13.64,2.33,1.26,4.66,1.84,7,.46,1.8.89,3.6,1.31,5.41l.12.53c.09.35.17.7.26,1,0,.17.08.34.13.5s0,.1,0,.16.07.22.1.32a.64.64,0,0,0,0,.07c.06.19.13.38.19.57s.08.22.12.31l.12.32a2.09,2.09,0,0,0,.14.3,5.24,5.24,0,0,0,.23.48l.06.11a10.45,10.45,0,0,0,.9,1.43l.23.29c.15.17.3.36.46.53h0c.14.15.3.31.46.46l0,0,.06,0a18.09,18.09,0,0,0,2.41-4.24A44.93,44.93,0,0,1,129,63.74c1.66-2.33,3.87-4.66,6.79-5.36a2.7,2.7,0,0,1,.41-.07,6.4,6.4,0,0,1,1.18-.1,6.68,6.68,0,0,1,2.41.42A3,3,0,0,1,141.46,60a2,2,0,0,1,.18.5.6.6,0,0,0,0,.12s0,.06,0,.1,0,.14,0,.22a3.77,3.77,0,0,1,0,.66.36.36,0,0,0,0,.11.78.78,0,0,1,0,.14,15.44,15.44,0,0,1-1.77,3.36c-.4.74-.8,1.49-1.2,2.26A33.59,33.59,0,0,0,135.37,76c-.42,2.12-.5,4.34-.87,6.47s-.84,4.27-1.38,6.38A28.41,28.41,0,0,1,131.78,93c-.59,1.37-1.08,2.6-1.57,3.8-.36.87-.71,1.71-1.12,2.57s-.8,1.7-1.3,2.61a21.45,21.45,0,0,0-2.58,10.92,23,23,0,0,0,.53,4.22c.68,3.11,1.84,6.15,2.79,9.17q1.64,5.19,3.25,10.36s0,0,0,0L133,140.4c.07.22.14.43.2.65a10.77,10.77,0,0,1,.94,2.77c.3.87.6,1.75.88,2.62a79.47,79.47,0,0,1-8.75,2.21,81.78,81.78,0,0,1-15.56,1.5h-1.28a83.52,83.52,0,0,1-10.84-.87c-.49-4.59-1-9.17-1.47-13.76s-.52-9.35-1.44-13.91a28.28,28.28,0,0,0-1.44-4.92c-1.66-4.1-5-7.1-7.47-10.72a118.8,118.8,0,0,1-7-11.76,119.68,119.68,0,0,1-8.23-20c-.71-2.28-1.5-4.65-2.2-7.07a46.36,46.36,0,0,1-2-10.11c-.12-1.87.34-2.89,1.64-3.59l.16-.08a1.11,1.11,0,0,1,.29-.1l.14,0,.23,0h.1l.23,0,.24.05a3.61,3.61,0,0,1,1.06.61,8.44,8.44,0,0,1,.89.83l.44.51c.15.18.29.37.43.56l.21.29.21.29a23,23,0,0,1,1.29,2.1l.14.25.13.23c.08.14.15.28.21.4s.17.33.24.47.09.19.13.26l.11.22,4.26,9.37a.93.93,0,0,0,0,.13c0,.08.09.22.15.37l0,.06.08.17.09.2s0,0,0,0a3.48,3.48,0,0,0,.63,1,.44.44,0,0,0,.3.18h.07c.56-.19-2.31-11.64-2.31-11.64a79.91,79.91,0,0,1-2.9-10.38,29.2,29.2,0,0,1-.62-9.86A6,6,0,0,1,78,35.73a.55.55,0,0,1,.14-.09l0,0a1.16,1.16,0,0,1,.19-.08l.19,0,.19,0h.33a1.73,1.73,0,0,1,.32,0l.1,0a3,3,0,0,1,.53.17,1.74,1.74,0,0,1,.27.14,1.67,1.67,0,0,1,.28.18,4.8,4.8,0,0,1,.6.49,6.9,6.9,0,0,1,.6.73l.24.35c.11.18.23.37.34.57s.13.25.2.39.27.57.41.9c0,.07.07.15.11.24a3.25,3.25,0,0,0,.15.4.58.58,0,0,0,0,.14c.12.33.25.66.38,1,0,.08,0,.15.07.23l.24.71c0,.12.08.25.13.38s.15.45.23.68a.24.24,0,0,0,0,.08c.33,1,.68,2.2,1,3.4a.56.56,0,0,0,0,.12c.08.26.16.53.23.79,0,0,0,0,0,.06.09.29.18.58.26.87l.63,2.17h0c0,.05,0,.11,0,.18l.54,1.89c.26.91.51,1.81.76,2.68,0,0,0,0,0,0s0,.19.08.29c.17.63.35,1.25.52,1.83l.09.31.12.4c.21.76.43,1.47.63,2.12.08.32.18.62.27.91a.31.31,0,0,0,0,.08l.06.17c.06.19.11.36.17.52a.88.88,0,0,0,.05.15c.06.19.11.37.17.53l.06.17c.09.26.18.47.25.65A22.88,22.88,0,0,0,92,66.76l.07.11a1.8,1.8,0,0,0,.18.25l.07.08,0,.06.06.08a1.19,1.19,0,0,0,.29.27l.09,0s0,0,0,0l.06,0h0a.58.58,0,0,0,.17.06h0c.07,0,.1-.14.1-.38a58.34,58.34,0,0,0-1.05-6.75c-.46-2.37-.89-4.42-.89-4.42s-.87-2.71-1.79-6.48c-.09-.41-.19-.84-.29-1.27a75.57,75.57,0,0,1-1.64-9.41,26.49,26.49,0,0,1,.07-7.22,6.4,6.4,0,0,1,1.69-3.62,3.44,3.44,0,0,1,.83-.58,2.17,2.17,0,0,1,.73-.11m0-1.1a3,3,0,0,0-1.15.2h0a4.41,4.41,0,0,0-1.12.78,7.41,7.41,0,0,0-2,4.21,27.85,27.85,0,0,0-.09,7.53A76.09,76.09,0,0,0,88,48.71l.3,1.28c.85,3.52,1.65,6.09,1.78,6.5s.47,2.21.88,4.35c.17.86.32,1.67.45,2.4l0-.05,0-.09c0-.14-.12-.3-.18-.49s0-.12,0-.15-.12-.34-.18-.52v-.08h0v0l0-.07c0-.11-.07-.22-.1-.33l0-.16,0-.07h0l0-.16-.06-.2c-.07-.21-.14-.44-.21-.68l-.07-.22c-.17-.59-.37-1.22-.56-1.9,0-.14-.08-.29-.12-.42l0-.14,0-.14-.53-1.84,0-.08a.5.5,0,0,1,0-.13l-.18-.88h-.08l-.49-1.74,0-.15-.27-1q-.15-.46-.27-.93v0h0l0-.15-.36-1.24L87,48.25c-.07-.25-.15-.51-.23-.76v0l0-.16,0-.15-.19-.64,0-.1v0h0c-.34-1.16-.68-2.27-1-3.32v0l0-.17-.06-.18c-.06-.17-.11-.32-.16-.48v0l0,0c0-.08-.05-.16-.08-.23l0-.1c-.05-.15-.1-.32-.16-.48l-.07-.22c0-.08,0-.12-.06-.16v0l0-.06c-.08-.24-.17-.46-.25-.68l-.13-.35,0-.06v0l-.05-.11-.1-.25,0-.11v-.05l0-.08L84,39c-.15-.34-.28-.64-.42-.93s-.15-.29-.23-.42-.2-.36-.3-.52L83,37l-.07-.11-.23-.33a9.45,9.45,0,0,0-.69-.83,7,7,0,0,0-.77-.64c-.11-.08-.23-.15-.35-.22a2.18,2.18,0,0,0-.37-.19,3.9,3.9,0,0,0-.68-.23h0l-.14,0a3.5,3.5,0,0,0-.54,0h-.46l-.24,0h-.09l-.12,0H78.1l-.08,0a2.21,2.21,0,0,0-.34.14h0l-.07,0c-.07.05-.15.09-.22.15a6.91,6.91,0,0,0-2.74,4.91A29.47,29.47,0,0,0,75.25,50,77.18,77.18,0,0,0,78.17,60.5c.38,1.54.77,3.16,1.12,4.66l-2.42-5.31a2.11,2.11,0,0,1-.11-.24l0,0,0,0,0-.09,0-.11-.27-.51-.2-.39-.08-.13,0-.07,0,0,0,0,0-.06s0-.1-.08-.16c-.39-.69-.85-1.45-1.35-2.17-.08-.12-.15-.22-.23-.32l-.19-.27c-.16-.23-.33-.44-.49-.63s-.32-.39-.48-.56a10.34,10.34,0,0,0-1-.94,4.8,4.8,0,0,0-1.41-.79h-.08l-.17,0-.06,0H70.3l-.27,0h-.22l-.34,0h-.11l-.18,0a2.09,2.09,0,0,0-.52.19l-.24.12c-2.1,1.13-2.27,3-2.17,4.59a48,48,0,0,0,2,10.36c.47,1.62,1,3.23,1.47,4.78.25.78.49,1.55.73,2.31a122.52,122.52,0,0,0,15.34,32c.89,1.34,1.92,2.59,2.91,3.81a26.9,26.9,0,0,1,4.45,6.71,27.08,27.08,0,0,1,1.38,4.73,72.83,72.83,0,0,1,1,9.1c.11,1.55.23,3.14.39,4.7q.38,3.45.73,6.88c.25,2.3.49,4.59.74,6.89l.09.84.84.13a83.42,83.42,0,0,0,11,.87h1.3a82.35,82.35,0,0,0,24.64-3.75l1.06-.33L136,146.1c-.28-.87-.58-1.75-.87-2.63-.07-.19-.13-.44-.2-.71a7.94,7.94,0,0,0-.78-2.18c0-.17-.11-.34-.16-.51-.38-1.19-.75-2.37-1.12-3.56v-.09l-.08-.17-1.6-5.1L129.58,126c-.27-.87-.56-1.73-.85-2.6a62.36,62.36,0,0,1-1.92-6.48,22.33,22.33,0,0,1-.51-4,20.41,20.41,0,0,1,2.45-10.36c.47-.87.91-1.74,1.34-2.68s.84-1.91,1.13-2.61l.33-.81c.39-.94.78-1.91,1.24-3a30.86,30.86,0,0,0,1.39-4.32c.56-2.17,1-4.35,1.4-6.47.18-1,.29-2.05.4-3.06.13-1.17.25-2.29.47-3.38A32.88,32.88,0,0,1,139.63,68c.39-.76.79-1.5,1.19-2.24.16-.3.36-.61.57-.94a9.31,9.31,0,0,0,1.29-2.69l0-.12,0-.13h0v-.1a3.85,3.85,0,0,0,.05-.85v-.08a1.21,1.21,0,0,0,0-.23v-.1l0-.12,0-.11a2.85,2.85,0,0,0-.26-.74,4,4,0,0,0-2.2-1.88,7.92,7.92,0,0,0-2.82-.5,8.51,8.51,0,0,0-1.36.11l-.48.09c-2.69.65-5.12,2.54-7.44,5.79a45.75,45.75,0,0,0-3.85,6.54l-.32.66a22.47,22.47,0,0,1-1.21,2.35l-.08-.09-.09-.12-.12-.14a10.55,10.55,0,0,1-.79-1.26l0-.06v0l0-.06a3.26,3.26,0,0,1-.18-.38v0l0,0a1.08,1.08,0,0,1-.08-.19l-.07-.16-.06-.15c0-.12-.08-.22-.12-.31a1.76,1.76,0,0,0-.07-.22l-.1-.3h0a.94.94,0,0,1,0-.09v0a2,2,0,0,0-.07-.23.24.24,0,0,0,0-.08v-.07l0,0-.06-.23c0-.08-.05-.16-.07-.25l-.11-.46c0-.18-.09-.36-.14-.54l0-.23-.06-.27c-.46-2-.89-3.76-1.31-5.44-.53-2.12-1.11-4.35-1.85-7l-.36-1.31L116.5,52v-.06s0-.09,0-.14c-.28-1-.56-1.95-.84-2.91,0-.06,0-.16-.08-.26-.15-.53-.31-1.05-.47-1.57a1.27,1.27,0,0,0,0-.18l-.29-.92-.24-.8v0l0-.14,0-.08a4.6,4.6,0,0,0-.12-.46v0l0,0a1.09,1.09,0,0,0,0-.17,2,2,0,0,0-.1-.35l0-.08s0-.12-.06-.21c-.09-.31-.2-.67-.32-1l0-.14,0-.11v0l0,0c0-.14-.1-.29-.14-.44v-.07l-.24-.64,0-.07,0,0,0-.12c-.05-.15-.11-.31-.17-.46a.54.54,0,0,0,0-.12V40l-.17-.16c-.06-.16-.13-.33-.2-.49v0l-.11-.24c-.07-.15-.14-.3-.2-.46l-.16-.35-.18-.35v0l-.13-.25-.07-.13-.1-.2-.07-.13-.11-.19c-.16-.29-.35-.62-.56-.93l-.11-.17-.09-.14,0,0,0-.06-.06-.08,0,0,0,0c-.1-.14-.22-.29-.33-.42l0-.07-.4-.44v-.15l-.47-.29-.1-.08L109,34,109,34l-.26-.26h-.13l0,0h0l0,0h0l0,0,0,0-.09,0-.2-.09,0,0,0,0-.1,0a2.75,2.75,0,0,0-.68-.17,1.39,1.39,0,0,0-.3,0h-.3l-.32,0h-.19l-.14,0a4.86,4.86,0,0,0-.5.17,3,3,0,0,0-.69.4,5.69,5.69,0,0,0-1.91,3.78,19.46,19.46,0,0,0-.26,2.93c0,.82,0,1.62,0,2.36a65.58,65.58,0,0,0,1.27,9.32c0,.22.26,1.67.49,3.48.13,1,.31,2.51.45,4.08.06.71.1,1.45.12,2.2v.15l-.06-.15c-.18-.5-.31-.95-.37-1.19a1.24,1.24,0,0,0,0-.15v0a1.16,1.16,0,0,0,0-.2s0,0,0-.08v0l0-.08v0c-.06-.2-.13-.47-.22-.81v-1h-.27v-.07c-.15-.52-.31-1.12-.49-1.78l-.07-.29h0v-.06l-.12-.45v0l0,0c0-.12-.07-.23-.1-.36-.16-.61-.34-1.26-.53-1.92-.07-.24-.14-.49-.2-.74l-.07-.25a2.45,2.45,0,0,0-.08-.29l-.12-.44-.09-.32h0l0-.16c-.09-.3-.17-.61-.26-.93s-.15-.56-.23-.84L101.3,49l-.12-.42-.12-.45c0-.13-.07-.26-.1-.39s-.11-.38-.16-.55l-.07-.26c0-.12-.07-.22-.1-.33l-.09-.33-.06-.22v-.07l0-.1-.14-.52c0-.16-.09-.32-.13-.48l-.38-1.33-.1-.38L99.63,43l0-.14-.07-.26-.08-.28c-.06-.21-.11-.38-.15-.55h0v0L99,40.9c-.16-.6-.33-1.19-.5-1.76s-.29-1-.44-1.55l-.26-.87q-.2-.7-.39-1.35v-.94h-.28l-.08-.27,0-.11a.74.74,0,0,0,0-.14,3,3,0,0,0-.1-.32,3.44,3.44,0,0,0-.11-.38,14.11,14.11,0,0,0-2.31-4.75,5.06,5.06,0,0,0-3.16-2,3.48,3.48,0,0,0-.55,0Z" transform="translate(-2.47 0.08)"/><path class="cls-7" d="M109.28,150.09l-10.73-.82-1.47-13.76c-.48-4.6-.52-9.35-1.44-13.91a28.28,28.28,0,0,0-1.44-4.92c-1.66-4.1-5-7.1-7.47-10.72a118.8,118.8,0,0,1-7-11.76,119.68,119.68,0,0,1-8.23-20,109,109,0,0,1-4-15.27,8.27,8.27,0,0,1,0-3.57A3,3,0,0,1,70,53.12,8.47,8.47,0,0,0,72.5,65a1.46,1.46,0,0,0-1.33,1.4,4.12,4.12,0,0,0,.54,2c1.39,3,1.88,7.25,6,5.94-3.31,2.27-2.26,4.21-.87,7.37,3.66,8.34,6.86,19.65,14.44,25.38,6.27,4.74,12.68,5.21,20.13,6.13-1.77-.22-6.43,3-7.69,4.23a12.53,12.53,0,0,0-3.4,7.32,38.58,38.58,0,0,0,.92,14.67C102.36,144,105.1,148.23,109.28,150.09Z" transform="translate(-2.47 0.08)"/><g class="cls-9"><path class="cls-7" d="M106.29,87.25A21.81,21.81,0,0,0,102,97.13a48.51,48.51,0,0,0-.31,9.79,22.52,22.52,0,0,1-1.32-15.1c.46-1.74,2.76-6.67-.29-7.36a4,4,0,0,0-1.64.07,48.55,48.55,0,0,0-14.24,5.21c.46-.26,1-1.22,1.34-1.62A33.54,33.54,0,0,1,91.35,83a35.53,35.53,0,0,1,9.16-4.52,32.8,32.8,0,0,1,15.29-1.38c1.38.24,1.23.69.33,1.63-1.69,1.78-3.95,2.82-5.84,4.37A25,25,0,0,0,106.29,87.25Z" transform="translate(-2.47 0.08)"/></g><path class="cls-7" d="M90.44,69.57a43.61,43.61,0,0,1-8.71,3c-.07-.24-.14-.46-.22-.7h0c.56-.19-2.31-11.64-2.31-11.64a79.91,79.91,0,0,1-2.9-10.38,29.2,29.2,0,0,1-.62-9.86A6,6,0,0,1,78,35.73a.55.55,0,0,1,.14-.09l0,0a1.16,1.16,0,0,1,.19-.08l.19,0,.19,0a4.11,4.11,0,0,1-.39.54,8.08,8.08,0,0,0-1.52,5.53,30.22,30.22,0,0,0,1.1,5c.11.47.06.94.43,1.28s1.51.6,1.91.24a4.17,4.17,0,0,0-1.2,3.31A12.29,12.29,0,0,0,80,54.86c.2.58.41,1.17.62,1.76a4,4,0,0,0,.8,1.55,1.37,1.37,0,0,0,1.59.36c0,.41-.5.57-.73.9-.39.5-.19,1.55-.17,2.14a13.78,13.78,0,0,0,.31,2.5,14.08,14.08,0,0,0,1.87,4.66,2.11,2.11,0,0,0,.62.71,2.32,2.32,0,0,0,1.11.25A30.31,30.31,0,0,0,90.44,69.57Z" transform="translate(-2.47 0.08)"/><path class="cls-7" d="M102,66.31l-2.94,1a15.35,15.35,0,0,1-5,1,1.65,1.65,0,0,1-.93-.23,1,1,0,0,1-.3-.36.58.58,0,0,0,.17.06c.07,0,.1-.13.1-.38a58.34,58.34,0,0,0-1.05-6.75c-.46-2.37-.89-4.42-.89-4.42s-.87-2.71-1.79-6.48c-.09-.41-.19-.84-.29-1.27a75.57,75.57,0,0,1-1.64-9.41,26.49,26.49,0,0,1,.07-7.22,6.4,6.4,0,0,1,1.69-3.62,5.48,5.48,0,0,0-.46,1.09,11.71,11.71,0,0,0-.4,4.09,21.61,21.61,0,0,0,.75,5.43,3.17,3.17,0,0,0,.4.9c.71,1,2.15.8,3.31.55-1,.58-2.2,1.31-2.44,2.49a4.58,4.58,0,0,0,.38,2.32,35.5,35.5,0,0,1,1.79,8.27.94.94,0,0,0,.18.56.93.93,0,0,0,.68.23l2.29.14a2.47,2.47,0,0,0-1.91,1.94,7.3,7.3,0,0,0,0,2.87c.35,2.4.53,5.45,3.11,6.5A17,17,0,0,0,102,66.31Z" transform="translate(-2.47 0.08)"/><path class="cls-7" d="M114.4,62.94c-.09.64-.87.88-1.5,1l-5.06.82a3.2,3.2,0,0,1-1.94-.1,1,1,0,0,1-.28-.18h0c.36-.08.46-1.11.43-2.52,0-.68-.06-1.46-.13-2.27-.12-1.37-.28-2.84-.45-4.12-.26-2-.5-3.54-.5-3.54a64.48,64.48,0,0,1-1.25-9.18c0-.77,0-1.54,0-2.28a19.3,19.3,0,0,1,.24-2.76,4.78,4.78,0,0,1,1.51-3.11,2.09,2.09,0,0,1,.46-.26l.34-.11h.06a4.51,4.51,0,0,0-1.08,1.76,8.54,8.54,0,0,0-.16,4,3.89,3.89,0,0,0,1,2.46,4.43,4.43,0,0,0,3.11.72l-2.12.9a1.44,1.44,0,0,0-.57.37,1.33,1.33,0,0,0-.17.69,40.75,40.75,0,0,0,0,4.69,4.32,4.32,0,0,0,.94,3,3.76,3.76,0,0,0,3,.79c-.32.68-1.32.65-1.93,1.09a2.62,2.62,0,0,0-.64,2.47,19.25,19.25,0,0,0,.59,2.93,3.67,3.67,0,0,0,.65,1.4,3.35,3.35,0,0,0,1.24.83A8.65,8.65,0,0,0,114.4,62.94Z" transform="translate(-2.47 0.08)"/><path class="cls-7" d="M136.26,58.5a22.52,22.52,0,0,0-4.93,5,7.59,7.59,0,0,0-1,6.7,2.48,2.48,0,0,0-2.53.58A7.56,7.56,0,0,0,126.26,73a31.62,31.62,0,0,0-3.43,8.69c0-2.46,0-4.93-.07-7.39l0,0,.06,0a18.09,18.09,0,0,0,2.41-4.24A44.93,44.93,0,0,1,129,63.74c1.66-2.33,3.87-4.66,6.79-5.36a2.7,2.7,0,0,1,.41-.07Z" transform="translate(-2.47 0.08)"/></g><path class="cls-10" d="M76.24,147.45A73.77,73.77,0,1,1,150,73.68,73.85,73.85,0,0,1,76.24,147.45Zm0-144.24a70.47,70.47,0,1,0,70.47,70.47A70.56,70.56,0,0,0,76.24,3.21Z" transform="translate(-2.47 0.08)"/><g class="cls-6"><path class="cls-7" d="M78.85,95.05a9,9,0,0,0-6.58-8.63,5.91,5.91,0,0,0-5.6-7.91,5.88,5.88,0,0,0-2.89.77,9.55,9.55,0,0,0-18.24,4,9.39,9.39,0,0,0,.1,1.31,5,5,0,1,0-7.16,6.91,7.68,7.68,0,0,0,8.46,12.72,5.46,5.46,0,0,0,5,3.36,5.35,5.35,0,0,0,2.52-.64,5.92,5.92,0,0,0,10.65.33,5.47,5.47,0,0,0,1.07.11,5.25,5.25,0,0,0,4.91-3.41A9,9,0,0,0,78.85,95.05Z" transform="translate(-2.47 0.08)"/></g><g class="cls-6"><path class="cls-7" d="M112.32,77.6a6.63,6.63,0,0,0-4.88-6.39,4.37,4.37,0,0,0-4.15-5.86,4.43,4.43,0,0,0-2.13.57,7.07,7.07,0,0,0-13.5,2.93,7.48,7.48,0,0,0,.07,1,3.71,3.71,0,1,0-5.3,5.12A5.68,5.68,0,0,0,86.06,85a5.57,5.57,0,0,0,2.63-.65,4,4,0,0,0,5.6,2,4.38,4.38,0,0,0,7.88.24,3.5,3.5,0,0,0,.8.08,3.89,3.89,0,0,0,3.63-2.52A6.63,6.63,0,0,0,112.32,77.6Z" transform="translate(-2.47 0.08)"/></g></g></g></svg>