<svg xmlns="http://www.w3.org/2000/svg" viewBox="0 0 147 147"><defs><style>.cls-1{isolation:isolate;}.cls-2{mix-blend-mode:overlay;}.cls-3{fill:#fff;}.cls-4{fill:#7a0000;}.cls-5{fill:#105c8e;}.cls-6{fill:#98e6f9;}</style></defs><title>masc</title><g class="cls-1"><g id="Layer_1" data-name="Layer 1"><g class="cls-2"><circle class="cls-3" cx="74.5" cy="75.07" r="71.86" transform="translate(-15.82 130.14) rotate(-77.6)"/></g><path class="cls-4" d="M74.5,148.58A73.51,73.51,0,1,1,148,75.08,73.59,73.59,0,0,1,74.5,148.58Zm0-143.72a70.22,70.22,0,1,0,70.22,70.22A70.3,70.3,0,0,0,74.5,4.86Z" transform="translate(-1 -1.57)"/><path class="cls-3" d="M35,91.84a6.5,6.5,0,0,1-1.58-.19,6.81,6.81,0,0,1-4.73-4.31,12.58,12.58,0,0,1-.49-4.47,15.64,15.64,0,0,0-.24-3.46,13.85,13.85,0,0,0-.72-2.11c-.16-.41-.32-.82-.46-1.23a13.91,13.91,0,0,1-.33-7.67c.37-1.51,1.19-3.48,3-4.31a5.33,5.33,0,0,1,2.26-.43h.12a8.33,8.33,0,0,1,2.6.49l.23.09.09.23c.36.94.77,1.88,1.27,2.89a25.91,25.91,0,0,1,2.39,7.41A26.52,26.52,0,0,1,38.55,82a1.52,1.52,0,0,0,.3-.17l.86-.61,0,8.65-.18.16a6.31,6.31,0,0,1-1.52,1A6.94,6.94,0,0,1,35,91.84Z" transform="translate(-1 -1.57)"/><path class="cls-5" d="M31.66,64.21h.12a7.36,7.36,0,0,1,2.41.46c.36.94.78,1.9,1.29,2.93a25.48,25.48,0,0,1,2.34,7.26,25.77,25.77,0,0,1,.09,7.89,2.24,2.24,0,0,0,1.26-.44l0,7.36a5.49,5.49,0,0,1-1.39.94,6.35,6.35,0,0,1-2.87.68,6,6,0,0,1-1.45-.17,6.33,6.33,0,0,1-4.35-4c-.88-2.5-.11-5.29-.71-7.87a32.64,32.64,0,0,0-1.19-3.4,13.26,13.26,0,0,1-.32-7.36,5.56,5.56,0,0,1,2.7-3.94,4.86,4.86,0,0,1,2-.38m0-1.09a5.79,5.79,0,0,0-2.49.48c-1.59.73-2.73,2.34-3.3,4.67a14.41,14.41,0,0,0,.34,8c.15.43.31.84.48,1.26a16.23,16.23,0,0,1,.69,2,14.48,14.48,0,0,1,.22,3.34,13.32,13.32,0,0,0,.52,4.66,7.36,7.36,0,0,0,5.12,4.65,7,7,0,0,0,1.71.21,7.49,7.49,0,0,0,3.36-.8A6.68,6.68,0,0,0,40,90.48l.36-.33v-.48l0-7.36V80.2l-1,.75a27.45,27.45,0,0,0-.3-6.26,26.77,26.77,0,0,0-2.44-7.58c-.49-1-.9-1.91-1.25-2.83L35,63.81l-.47-.17a8.51,8.51,0,0,0-2.77-.52Z" transform="translate(-1 -1.57)"/><path class="cls-6" d="M39.21,89.67a5.49,5.49,0,0,1-1.39.94,6.18,6.18,0,0,1-8.67-3.45c-.65-1.84-.32-3.78-.34-5.69a2.56,2.56,0,0,0,.46,1.16c.29.52.5,1.1.75,1.64a3.31,3.31,0,0,0,1,1.46,3.07,3.07,0,0,0,1.75.38,3.38,3.38,0,0,0,2.92-1,3,3,0,0,0,.44-1.53,3,3,0,0,0-.24-1.69,8.56,8.56,0,0,0-1.1-1.23A3.62,3.62,0,0,1,34,78.22a5.53,5.53,0,0,1,.72-2.44c.21-.39.45-.75.63-1.15a3.78,3.78,0,0,0,.23-2.37,2.61,2.61,0,0,0-.93-1.56,3,3,0,0,0-1.49-.5A4.7,4.7,0,0,0,30,71a3.29,3.29,0,0,0-1.4,2.91A7.34,7.34,0,0,1,29,70.79a5.41,5.41,0,0,1,.53-1.08,4.37,4.37,0,0,1,5.14-1.62,4.46,4.46,0,0,0-5.35-3.15,4.1,4.1,0,0,1,2.62-.76c.32,0,2.14.18,2.26.49.36.94.78,1.9,1.29,2.93a25.48,25.48,0,0,1,2.34,7.26,25.77,25.77,0,0,1,.09,7.89,2.24,2.24,0,0,0,1.26-.44Z" transform="translate(-1 -1.57)"/><path class="cls-3" d="M114.05,91.84a6.85,6.85,0,0,1-3.11-.74,5.9,5.9,0,0,1-1.52-1l-.18-.16.06-8.52,1.08-.09c.06.36.1.72.14,1.07h.41c-.48-2.83-.11-11.06-.1-11.14a25.8,25.8,0,0,1,1.71-5.9l.06-.17.15-.09a8.63,8.63,0,0,1,4.46-1.41h.13a5.18,5.18,0,0,1,2.26.44c1.82.83,2.64,2.8,3,4.3a14,14,0,0,1-.34,7.66c-.15.44-.32.87-.49,1.3a14.13,14.13,0,0,0-.69,2,14.53,14.53,0,0,0-.23,3.46,12.81,12.81,0,0,1-.49,4.47,6.84,6.84,0,0,1-4.74,4.31A6.39,6.39,0,0,1,114.05,91.84Z" transform="translate(-1 -1.57)"/><path class="cls-5" d="M117.34,64.21a4.86,4.86,0,0,1,2,.38,5.6,5.6,0,0,1,2.71,3.94,13.35,13.35,0,0,1-.33,7.36,35.14,35.14,0,0,0-1.19,3.4c-.6,2.58.18,5.37-.7,7.87a6.39,6.39,0,0,1-4.36,4,5.93,5.93,0,0,1-1.45.17,6.31,6.31,0,0,1-2.86-.68,5.54,5.54,0,0,1-1.4-.94l0-8.28c.09.51.14,1,.19,1.53h1.66c-.67,0-.44-10.62-.31-11.63a25.17,25.17,0,0,1,1.67-5.77,8.08,8.08,0,0,1,4.17-1.31h.12m0-1.09h-.14a9,9,0,0,0-4.75,1.49l-.3.19-.12.33a26.7,26.7,0,0,0-1.74,6,91.6,91.6,0,0,0,0,10.12l-1.52.12-.06,8.27v.49l.36.33a6.82,6.82,0,0,0,1.66,1.12,7.53,7.53,0,0,0,3.34.79,6.88,6.88,0,0,0,1.7-.21,7.43,7.43,0,0,0,5.14-4.65,13.31,13.31,0,0,0,.51-4.66,14.48,14.48,0,0,1,.22-3.34,13.37,13.37,0,0,1,.67-2c.17-.43.35-.88.5-1.34a14.55,14.55,0,0,0,.35-8c-.39-1.62-1.29-3.75-3.31-4.67a5.79,5.79,0,0,0-2.49-.48Z" transform="translate(-1 -1.57)"/><path class="cls-6" d="M109.36,89.67a5.49,5.49,0,0,0,1.39.94,6.18,6.18,0,0,0,8.67-3.45c.65-1.84.32-3.78.33-5.69a2.44,2.44,0,0,1-.45,1.16c-.29.52-.51,1.1-.75,1.64a3.31,3.31,0,0,1-1,1.46,3.07,3.07,0,0,1-1.75.38,3.41,3.41,0,0,1-2.93-1,3.2,3.2,0,0,1-.44-1.53,3,3,0,0,1,.25-1.69,8,8,0,0,1,1.1-1.23,3.62,3.62,0,0,0,.78-2.39,5.53,5.53,0,0,0-.72-2.44c-.21-.39-.46-.75-.63-1.15a3.78,3.78,0,0,1-.23-2.37,2.64,2.64,0,0,1,.92-1.56,3,3,0,0,1,1.5-.5,4.67,4.67,0,0,1,3.22.76A3.28,3.28,0,0,1,120,73.87a7.34,7.34,0,0,0-.43-3.08,5.41,5.41,0,0,0-.53-1.08,4.37,4.37,0,0,0-5.14-1.62,4.46,4.46,0,0,1,5.35-3.15,4.13,4.13,0,0,0-2.63-.76c-.31,0-2.13.18-2.25.49-.36.94-.79,1.9-1.29,2.93a25.48,25.48,0,0,0-2.34,7.26,25.77,25.77,0,0,0-.09,7.89,2.24,2.24,0,0,1-1.26-.44Z" transform="translate(-1 -1.57)"/><path class="cls-3" d="M74.5,133.21c-10.33,0-19.65-8.18-26.62-15.3a63.29,63.29,0,0,1-5.6-6.34,24.12,24.12,0,0,1-5-15.58V74.86l1.09-.09A26.52,26.52,0,0,1,38.55,82a1.52,1.52,0,0,0,.3-.17,2.86,2.86,0,0,0,1-1.33,8.15,8.15,0,0,0,.35-3.06c-.07-4.8.07-9.62.4-14.42.13-1.83.35-3.57,1.52-4.87a8.06,8.06,0,0,1,1.22-1.06c.18-.13.36-.26.53-.4a7.45,7.45,0,0,0,2.58-6.86h0l1.08-.18-.52.1.52-.09c1.19,7.1,10.74,11.59,18.62,13.08a5.42,5.42,0,0,1-1.41-2.3l1-.4c.62,1.25,2,2.16,4.27,2.79a32.28,32.28,0,0,0,8.72,1.07,99.1,99.1,0,0,0,10.16-.71,99.4,99.4,0,0,1,10.37-.72h.31a4.76,4.76,0,0,1,3.13.84c1.16,1,1.17,2.46,1.19,3.88A10.74,10.74,0,0,0,104,69a4.24,4.24,0,0,0,2,2.87c.19.11.38.2.57.3a4.72,4.72,0,0,1,1.4.94,4.47,4.47,0,0,1,.89,1.73,36.1,36.1,0,0,1,1.5,6.51c.06.34.11.7.14,1.05h1.21V96a25,25,0,0,1-5,15.88,54.52,54.52,0,0,1-7.34,7.7C93,125.33,84.22,133.21,74.5,133.21Z" transform="translate(-1 -1.57)"/><path class="cls-5" d="M47,49.77h0m0,0c1.48,8.82,14.66,13.29,22.25,14a5.1,5.1,0,0,1-4-3.45c.84,1.7,2.78,2.56,4.61,3.07a33.26,33.26,0,0,0,8.87,1.08c6.77,0,13.7-1.42,20.53-1.42h.3a4.25,4.25,0,0,1,2.79.71c1.42,1.2.78,3.48,1.11,5.31a4.84,4.84,0,0,0,2.25,3.24,7.55,7.55,0,0,1,1.85,1.14,4,4,0,0,1,.77,1.53,35.26,35.26,0,0,1,1.48,6.41c.09.51.14,1,.19,1.53h1.16V96a24.47,24.47,0,0,1-4.89,15.55A53.48,53.48,0,0,1,99,119.17c-6.5,5.84-15.09,13.49-24.52,13.49-10.28,0-19.57-8.33-26.23-15.14a64.31,64.31,0,0,1-5.55-6.27A23.53,23.53,0,0,1,37.82,96V74.86a25.77,25.77,0,0,1,.09,7.89,2.24,2.24,0,0,0,1.26-.44,3.36,3.36,0,0,0,1.21-1.57,8.77,8.77,0,0,0,.39-3.35c-.07-4.76.07-9.54.4-14.29.11-1.61.29-3.35,1.37-4.54a14.46,14.46,0,0,1,1.7-1.41A8,8,0,0,0,47,49.78m1.08-.18-.33.06-.75.11L45.93,50l1.17-.19L45.93,50a6.92,6.92,0,0,1-2.39,6.34,6.12,6.12,0,0,1-.5.39,8.69,8.69,0,0,0-1.32,1.14c-1.38,1.54-1.54,3.73-1.64,5.19-.34,4.81-.47,9.65-.41,14.39v.07a7.92,7.92,0,0,1-.3,2.86l-.15.31a27.17,27.17,0,0,0-.32-6l-2.17.17V96a24.61,24.61,0,0,0,5.12,15.91,61.87,61.87,0,0,0,5.64,6.39c7,7.2,16.48,15.47,27,15.47,9.93,0,18.79-8,25.25-13.78a54.16,54.16,0,0,0,7.42-7.79A25.46,25.46,0,0,0,112.28,96V81.82H111c0-.2-.05-.4-.09-.61a37.6,37.6,0,0,0-1.52-6.57,4.87,4.87,0,0,0-1-1.93,5.21,5.21,0,0,0-1.56-1.06c-.18-.09-.36-.18-.53-.28a3.77,3.77,0,0,1-1.73-2.5,9.44,9.44,0,0,1-.1-1.65c0-1.48,0-3.15-1.38-4.3a5.25,5.25,0,0,0-3.48-1h-.32a102.79,102.79,0,0,0-10.42.72,98.53,98.53,0,0,1-10.11.71,31.65,31.65,0,0,1-8.58-1.05c-2.09-.58-3.37-1.4-3.91-2.5l-2,.8a5.43,5.43,0,0,0,.58,1.3C57.44,60.23,49.17,56,48.09,49.6Z" transform="translate(-1 -1.57)"/><path class="cls-3" d="M109.49,83a37.4,37.4,0,0,0-1.64-7.82,3.69,3.69,0,0,0-.66-1.33,3.79,3.79,0,0,0-1.09-.7c-.22-.11-.43-.22-.63-.34A5.34,5.34,0,0,1,103,69.17a11.31,11.31,0,0,1-.12-1.93c0-1.24,0-2.4-.81-3.07a3.79,3.79,0,0,0-2.43-.57h-.31A100.66,100.66,0,0,0,89,64.31,100.45,100.45,0,0,1,78.77,65a33.32,33.32,0,0,1-9-1.11l-.46-.13-.07.54c-7-.65-18.21-4.3-21.76-11.46a8.54,8.54,0,0,1-2.87,4.72c-.19.15-.38.3-.58.44a6.69,6.69,0,0,0-1,.9c-.94,1-1.12,2.59-1.24,4.21-.33,4.73-.46,9.53-.4,14.26a9.41,9.41,0,0,1-.41,3.54,3.49,3.49,0,0,1-3,2.36l-.64,0,.09-.64A25.57,25.57,0,0,0,35,67.84a27.54,27.54,0,0,1-3.08-11.3,50.9,50.9,0,0,1,.27-10.89,28.77,28.77,0,0,1,2-7.07c1.59-3.76,4.66-8.43,10.26-9.32.21,0,.42-.05.63-.07a1.74,1.74,0,0,0,1.19-.34A4.49,4.49,0,0,0,47,27.58l.13-.24c2.38-4.55,7.31-8,13.17-9.18a65.49,65.49,0,0,1,13-1.22c1.61,0,3.29,0,5,.15h.41a41.31,41.31,0,0,1,29.8,16,33.78,33.78,0,0,1,6.62,27.6,32.84,32.84,0,0,1-1.56,4.89,25.5,25.5,0,0,0-1.66,5.73c-.15,1.13-.29,10.27.16,11.2a.45.45,0,0,0-.38-.2v1.09h-2.16Z" transform="translate(-1 -1.57)"/><path class="cls-5" d="M73.32,17.49c1.66,0,3.31.05,5,.14.15,0,.29,0,.44,0C100,19,119.18,38.48,114.6,60.64c-.77,3.72-2.73,6.88-3.22,10.65-.13,1-.36,11.63.32,11.63H110A36.56,36.56,0,0,0,108.36,75a3.88,3.88,0,0,0-.77-1.53,7.68,7.68,0,0,0-1.84-1.14,4.8,4.8,0,0,1-2.26-3.24c-.33-1.83.3-4.1-1.11-5.31a4.19,4.19,0,0,0-2.78-.71h-.31c-6.83,0-13.76,1.42-20.52,1.42a33,33,0,0,1-8.89-1.09c-1.83-.5-3.76-1.36-4.59-3.06a5.08,5.08,0,0,0,4,3.45c-7.6-.7-20.78-5.17-22.25-14a8,8,0,0,1-2.78,7.38,16.31,16.31,0,0,0-1.69,1.4c-1.07,1.21-1.26,2.94-1.37,4.54q-.49,7.14-.41,14.3a9.2,9.2,0,0,1-.37,3.35,2.93,2.93,0,0,1-2.48,2A26,26,0,0,0,35.49,67.6a27,27,0,0,1-3-11.1,49.73,49.73,0,0,1,.26-10.77,28.37,28.37,0,0,1,1.91-6.94c1.84-4.35,5-8.21,9.85-9,.74-.12,1.54,0,2.11-.56a6,6,0,0,0,1-1.65c2.51-4.79,7.61-7.83,12.8-8.89a64.51,64.51,0,0,1,12.87-1.21m0-1.1v0a65.73,65.73,0,0,0-13.08,1.24c-6,1.23-11.1,4.76-13.56,9.46l-.13.25a4.15,4.15,0,0,1-.71,1.12c-.13.13-.41.15-.85.19a5.08,5.08,0,0,0-.67.07c-4.64.74-8.33,4.07-10.69,9.65a29.26,29.26,0,0,0-2,7.2,51.34,51.34,0,0,0-.28,11,28.25,28.25,0,0,0,3.14,11.51,25,25,0,0,1,2.32,14.5l-.19,1.28,1.29,0a4,4,0,0,0,3.48-2.71,9.64,9.64,0,0,0,.44-3.71c-.06-4.76.08-9.54.41-14.25.11-1.52.27-3,1.1-3.89a6.84,6.84,0,0,1,1-.82l.6-.46a9.14,9.14,0,0,0,2.68-3.76c4.2,6.61,14.75,10,21.55,10.62l.07-.53.36.11a34,34,0,0,0,9.18,1.13,101.43,101.43,0,0,0,10.32-.72,99.67,99.67,0,0,1,10.2-.71h.3a3.48,3.48,0,0,1,2.08.45c.54.47.59,1.31.61,2.65a11.5,11.5,0,0,0,.14,2,5.92,5.92,0,0,0,2.77,4l.66.35a3.17,3.17,0,0,1,.94.59,2.92,2.92,0,0,1,.53,1.12A35.63,35.63,0,0,1,108.94,83l.1,1h2.66V81.82h0a1,1,0,0,1,.89.55c-.4-1.14-.26-9.91-.13-10.93a25.38,25.38,0,0,1,1.64-5.6,32.91,32.91,0,0,0,1.57-5,34.29,34.29,0,0,0-6.71-28A41.88,41.88,0,0,0,78.79,16.57h-.07l-.2,0h-.18c-1.71-.1-3.4-.15-5-.15Z" transform="translate(-1 -1.57)"/><path class="cls-6" d="M69.26,63.77a5.08,5.08,0,0,1-4-3.45c.83,1.7,2.76,2.56,4.59,3.06,9.6,2.67,19.76-.4,29.72-.33a4.19,4.19,0,0,1,2.78.71c1.41,1.21.78,3.48,1.11,5.31a4.8,4.8,0,0,0,2.26,3.24,7.68,7.68,0,0,1,1.84,1.14,3.88,3.88,0,0,1,.77,1.53A36.56,36.56,0,0,1,110,82.92h1.67c-.68,0-.45-10.62-.32-11.63.49-3.77,2.45-6.93,3.22-10.65a30.3,30.3,0,0,0,0-13.2,13.69,13.69,0,0,0-2.31-4.82,12.63,12.63,0,0,0-1.94-2.06c-.43-.36-1.66-.9-1.9-1.34A36.26,36.26,0,0,1,111,44.7c1.46,4.42,1.14,9.2.81,13.84a4.39,4.39,0,0,0-.88-4.45,9.52,9.52,0,0,0-4-2.54,11.23,11.23,0,0,1,2.36,5.65c-1.57-2.55-4.85-3.4-7.84-3.65s-6.3-.1-9.43-.43a30.35,30.35,0,0,1-12.19-4.06,31.77,31.77,0,0,0,9.67,6.58q-5.13-.81-10.23-1.74a55,55,0,0,1-11.48-3.15A28.84,28.84,0,0,1,62.63,48a25,25,0,0,1-2.38-1.86c-.42-.37-1.8-1.29-1.94-1.87a17.33,17.33,0,0,0,3,6.84,14.49,14.49,0,0,0,5.1,4.49c-1.21-.6-2.84-.68-4.12-1.24a20.26,20.26,0,0,1-3.43-1.93,21.86,21.86,0,0,1-5.74-6,28.48,28.48,0,0,1-4-10.22,21,21,0,0,1-.32-6.94A11.87,11.87,0,0,1,51.59,23c-1.43,1.6-2.92,2.67-3.94,4.62a6,6,0,0,1-1,1.65c-.57.56-1.37.44-2.11.56a10.67,10.67,0,0,0-4,1.5c-1,.63-1.78,1.72-2.9,2.14A4,4,0,0,1,42,34.73,6.65,6.65,0,0,1,43,36.6a32.83,32.83,0,0,1,1.61,10.28,18.62,18.62,0,0,1-.41,5,8.1,8.1,0,0,1-2.5,4.27,11.44,11.44,0,0,0,1.19-5.75c-1.31,3.08-2.81,6.38-5.73,8A10.87,10.87,0,0,0,35.73,52a17.85,17.85,0,0,0-.22,7A20.49,20.49,0,0,1,33.2,46.32c-1.53,2.88-1,7.06-.73,10.18a27,27,0,0,0,3,11.1,26,26,0,0,1,2.42,15.14,2.93,2.93,0,0,0,2.48-2,9.2,9.2,0,0,0,.37-3.35q-.09-7.15.41-14.3c.11-1.6.3-3.33,1.37-4.54a16.31,16.31,0,0,1,1.69-1.4A8,8,0,0,0,47,49.77C48.48,58.6,61.66,63.07,69.26,63.77Z" transform="translate(-1 -1.57)"/><path class="cls-3" d="M74.5,133.21c-10.33,0-19.65-8.18-26.62-15.3a63.29,63.29,0,0,1-5.6-6.34l-.11-.15.88-22.73L74.5,80.23,106,88.69l.9,23-.12.16a33.88,33.88,0,0,1-2.52,3c-1.27,1.38-2.8,2.87-4.82,4.68C93,125.33,84.22,133.21,74.5,133.21Z" transform="translate(-1 -1.57)"/><path class="cls-5" d="M74.5,80.8l.25.06,30.67,8.25.88,22.43a35.73,35.73,0,0,1-2.49,3c-1.42,1.54-3,3.07-4.79,4.65-6.5,5.84-15.09,13.49-24.52,13.49-10.28,0-19.57-8.33-26.23-15.14a64.31,64.31,0,0,1-5.55-6.27l.86-22.14L74.5,80.8m0-1.13-.28.07L43.3,88.05l-.78.21,0,.81-.86,22.13v.39l.22.31a63.32,63.32,0,0,0,5.65,6.39c7,7.2,16.48,15.47,27,15.47,9.93,0,18.79-8,25.25-13.78a66.59,66.59,0,0,0,4.86-4.72,35.73,35.73,0,0,0,2.57-3.07l.22-.31v-.38l-.88-22.43,0-.81-.78-.21L75,79.81l-.25-.07-.28-.07Z" transform="translate(-1 -1.57)"/><path class="cls-5" d="M105.42,89.66a.54.54,0,0,1-.39-.17.55.55,0,0,1,0-.77l6.29-6.19a.54.54,0,1,1,.76.78L105.8,89.5A.52.52,0,0,1,105.42,89.66Z" transform="translate(-1 -1.57)"/><path class="cls-5" d="M43.58,89.66a.55.55,0,0,1-.41-.18L37.5,83.11a.55.55,0,0,1,.82-.73L44,88.75a.55.55,0,0,1-.41.91Z" transform="translate(-1 -1.57)"/><path class="cls-6" d="M103.81,114.52c-1.42,1.54-3,3.07-4.79,4.65-6.5,5.84-15.09,13.49-24.52,13.49-10.28,0-19.57-8.33-26.23-15.14a64.31,64.31,0,0,1-5.55-6.27l.86-22.14L74.5,80.8l.25.06A22.26,22.26,0,0,1,72,83.93c-1.84,1.29-4,1.7-6,2.68a24.62,24.62,0,0,1-4.61,1.59c-1,.27-3.27.41-3.68,1.67a2.55,2.55,0,0,0-.09.83c0,1.07,0,2.14,0,3.21,0,.84-.12,2.44.63,3,.48.39,1.32.19,1.9.18a24.13,24.13,0,0,0,6.75-.94c2.25-.69,4.33-2.12,6.75-2.06s4.51,1.44,6.63,2.56a34.87,34.87,0,0,0,17.21,4.1c-1,0-2.26.8-3.3,1a27.1,27.1,0,0,1-3.6.24,30.64,30.64,0,0,0-7.16.47c-2.37.58-4.58,1.49-7,1.86a25.39,25.39,0,0,1-9.75-.27c-2-.51-3.92-1.42-6-1.76-1.58-.26-2.88-.32-3.5,1.43a10.11,10.11,0,0,0-.58,2.83c-.09,1.28,0,1.37,1.2,1.75,2,.66,4.13,1.17,6.19,1.77,1.41.42,2.68,1.62,4.08,2.18a16,16,0,0,0,4.68,1.12c3.91.31,7.85-.79,11.76-.41-.91.43-1.83.84-2.76,1.24a13.86,13.86,0,0,1-2.24.79,14.17,14.17,0,0,1-3,.25,64,64,0,0,1-12.52-1c-.95-.19-5.84-2-6.33-1.28a1.65,1.65,0,0,0-.19.82c-.08,1.87-.17,3.73-.26,5.6,0,.38,0,.76-.05,1.14-.08,1.63,2.15,2.2,3.47,2.75,2.21.93,4,2.35,6.6,2a29.61,29.61,0,0,0,4.52-1.43,12.62,12.62,0,0,1,8.42.35,24.32,24.32,0,0,0,2.77,1.12,9.08,9.08,0,0,0,6.39-1.11A56.2,56.2,0,0,0,97,120a44.9,44.9,0,0,0,3.59-3c.49-.46,3.26-2.53,3.24-3.13C103.79,114.06,103.81,114.29,103.81,114.52Z" transform="translate(-1 -1.57)"/></g></g></svg>